G75*
G70*
%OFA0B0*%
%FSLAX24Y24*%
%IPPOS*%
%LPD*%
%AMOC8*
5,1,8,0,0,1.08239X$1,22.5*
%
%ADD10C,0.1502*%
%ADD11R,0.0512X0.0591*%
%ADD12R,0.0276X0.0512*%
%ADD13R,0.1750X0.1250*%
%ADD14R,0.0591X0.0512*%
%ADD15R,0.0394X0.1181*%
%ADD16R,0.0945X0.0709*%
%ADD17R,0.0984X0.0768*%
%ADD18R,0.1063X0.0630*%
%ADD19C,0.0740*%
%ADD20R,0.0500X0.0220*%
%ADD21R,0.0220X0.0500*%
%ADD22C,0.0600*%
%ADD23OC8,0.0600*%
%ADD24R,0.0472X0.0551*%
%ADD25R,0.0394X0.0551*%
%ADD26R,0.0768X0.0984*%
%ADD27R,0.0600X0.1600*%
%ADD28R,0.0472X0.0512*%
%ADD29C,0.0240*%
%ADD30C,0.0160*%
%ADD31C,0.0278*%
%ADD32C,0.0120*%
%ADD33C,0.1575*%
D10*
X018053Y004983D03*
X020612Y003506D03*
X023171Y004983D03*
X023171Y007936D03*
X018053Y007936D03*
X028289Y007936D03*
X033407Y007936D03*
X033407Y004983D03*
X030848Y003506D03*
X028289Y004983D03*
X030848Y013743D03*
X028289Y015219D03*
X033407Y015219D03*
X033407Y018172D03*
X028289Y018172D03*
X023171Y018172D03*
X018053Y018172D03*
X018053Y015219D03*
X020612Y013743D03*
X023171Y015219D03*
D11*
X036380Y021617D03*
X037128Y021617D03*
X037128Y022404D03*
X036380Y022404D03*
X040021Y020140D03*
X040769Y020140D03*
X040868Y016105D03*
X040120Y016105D03*
X042974Y016105D03*
X043722Y016105D03*
X042698Y013251D03*
X042029Y013251D03*
X038506Y006853D03*
X037757Y006853D03*
X042187Y006066D03*
X042935Y006066D03*
D12*
X039177Y018369D03*
X038677Y018369D03*
X038177Y018369D03*
X037677Y018369D03*
X037677Y020534D03*
X038177Y020534D03*
X038677Y020534D03*
X039177Y020534D03*
D13*
X038427Y019451D03*
D14*
X037147Y020101D03*
X037147Y020770D03*
X036360Y020770D03*
X036360Y020101D03*
X036754Y019235D03*
X036754Y018487D03*
X038131Y021676D03*
X038131Y022345D03*
X042757Y009195D03*
X042757Y008447D03*
D15*
X041659Y019522D03*
X043943Y019522D03*
D16*
X041773Y020819D03*
X041773Y022414D03*
D17*
X043007Y022351D03*
X043007Y021150D03*
D18*
X039214Y021262D03*
X039214Y022365D03*
D19*
X036557Y008097D03*
X036557Y007097D03*
X036557Y006097D03*
X036557Y005097D03*
X036557Y004097D03*
X015100Y006066D03*
X015100Y007066D03*
X015100Y008066D03*
D20*
X038607Y008310D03*
X038607Y008625D03*
X038607Y008940D03*
X038607Y009254D03*
X038607Y009569D03*
X038607Y009884D03*
X038607Y010199D03*
X038607Y010514D03*
X041987Y010514D03*
X041987Y010199D03*
X041987Y009884D03*
X041987Y009569D03*
X041987Y009254D03*
X041987Y008940D03*
X041987Y008625D03*
X041987Y008310D03*
D21*
X041399Y007722D03*
X041084Y007722D03*
X040769Y007722D03*
X040454Y007722D03*
X040139Y007722D03*
X039824Y007722D03*
X039509Y007722D03*
X039194Y007722D03*
X039194Y011102D03*
X039509Y011102D03*
X039824Y011102D03*
X040139Y011102D03*
X040454Y011102D03*
X040769Y011102D03*
X041084Y011102D03*
X041399Y011102D03*
D22*
X037647Y014416D03*
D23*
X036647Y014416D03*
X036647Y015416D03*
X037647Y015416D03*
X037647Y016416D03*
X036647Y016416D03*
D24*
X042246Y007680D03*
X042876Y007680D03*
X042876Y006814D03*
X042246Y006814D03*
D25*
X041970Y014491D03*
X041596Y015357D03*
X040868Y015357D03*
X040120Y015357D03*
X039490Y015357D03*
X038742Y015357D03*
X039116Y014491D03*
X040494Y014491D03*
X042344Y015357D03*
X042974Y015357D03*
X043722Y015357D03*
X043348Y014491D03*
D26*
X043752Y017089D03*
X042551Y017089D03*
X040897Y017089D03*
X039696Y017089D03*
D27*
X039313Y001735D03*
X041313Y001735D03*
D28*
X038531Y007640D03*
X037731Y007640D03*
D29*
X037246Y010101D02*
X025336Y010101D01*
X023171Y007936D01*
X021694Y006459D01*
X017265Y006459D01*
X016872Y006066D01*
X015100Y006066D01*
X033407Y018270D02*
X035179Y016499D01*
X036565Y016499D01*
X036647Y016416D01*
X039490Y016882D02*
X039490Y015357D01*
X040100Y015337D02*
X040100Y015022D01*
X039569Y014491D01*
X039116Y014491D01*
X040100Y015337D02*
X040120Y015357D01*
X040120Y016105D01*
X040868Y016105D02*
X040868Y017060D01*
X040897Y017089D01*
X040887Y017079D01*
X040887Y016991D01*
X040887Y016892D01*
X040789Y016794D01*
X039805Y016991D02*
X039598Y016991D01*
X039696Y017089D01*
X039706Y017099D01*
X039706Y017680D01*
X039903Y017877D01*
X042364Y017877D01*
X042561Y017680D01*
X042561Y017286D01*
X042344Y017069D01*
X042344Y015357D01*
X042344Y016882D01*
X042551Y017089D01*
X043722Y017060D02*
X043752Y017089D01*
X043722Y017060D02*
X043722Y016105D01*
X043722Y015357D01*
X043722Y015337D01*
X043742Y015317D01*
X042974Y015357D02*
X042954Y015337D01*
X042954Y015022D01*
X042423Y014491D01*
X041970Y014491D01*
X041773Y013940D02*
X043053Y013940D01*
X043446Y013546D01*
X043446Y010003D01*
X043446Y009904D01*
X043446Y009215D01*
X043446Y006459D01*
X043446Y005967D01*
X043446Y002916D01*
X042265Y001735D01*
X041281Y001735D01*
X039313Y001735D01*
X043840Y003310D02*
X043840Y013743D01*
X043348Y014235D01*
X043348Y014491D01*
X043387Y014491D01*
X042974Y015357D02*
X042974Y016105D01*
X040868Y016105D02*
X040868Y015357D01*
X040494Y014491D02*
X040454Y014491D01*
X040494Y014333D01*
X040494Y014038D01*
X042029Y013251D02*
X042029Y013191D01*
X042069Y013152D01*
X042659Y013152D02*
X043053Y012758D01*
X043053Y011085D01*
X042659Y013152D02*
X042698Y013191D01*
X042738Y013231D01*
X042698Y013251D02*
X042659Y013191D01*
X042659Y013152D01*
X042698Y013191D02*
X042698Y013251D01*
X039490Y016882D02*
X039696Y017089D01*
X039193Y018353D02*
X041265Y018353D01*
X041675Y018762D01*
X041675Y018999D01*
X041596Y019077D01*
X041675Y019156D01*
X041675Y019506D01*
X041659Y019522D01*
X041659Y020140D01*
X040769Y020140D01*
X040021Y020140D02*
X039628Y020534D01*
X039177Y020534D01*
X038677Y020534D02*
X038677Y020981D01*
X038919Y021223D01*
X039175Y021223D01*
X039214Y021262D01*
X038177Y021630D02*
X038177Y020534D01*
X037677Y020534D02*
X037639Y020534D01*
X037677Y020571D01*
X037677Y020595D01*
X037677Y020571D02*
X037677Y020534D01*
X037639Y020534D02*
X037344Y020829D01*
X037147Y020770D01*
X037128Y020869D01*
X037128Y021617D01*
X037128Y022404D01*
X037344Y022384D01*
X038033Y022384D01*
X038072Y022345D01*
X038131Y022345D01*
X038033Y022384D02*
X039194Y022384D01*
X039214Y022365D01*
X041724Y022365D01*
X041773Y022414D01*
X042944Y022414D01*
X043007Y022351D01*
X043250Y021321D02*
X043177Y021150D01*
X043007Y021150D01*
X043943Y020215D01*
X043943Y019522D01*
X043943Y019841D01*
X043939Y019845D01*
X041773Y020819D02*
X041659Y020705D01*
X041659Y020140D01*
X039193Y018353D02*
X039177Y018369D01*
X037147Y020101D02*
X036360Y020101D01*
X036360Y020770D02*
X036360Y021597D01*
X036380Y021617D01*
X036517Y021558D01*
X036320Y021558D01*
X036261Y021617D01*
X036261Y021814D01*
X038131Y021676D02*
X038177Y021630D01*
X033407Y018270D02*
X032029Y019648D01*
X024647Y019648D01*
X023171Y018172D01*
X033407Y018172D02*
X033407Y018270D01*
D30*
X037147Y020770D02*
X037088Y020987D01*
X037049Y021026D01*
X037049Y020829D01*
D31*
X037639Y020534D03*
X039214Y021223D03*
X036261Y021814D03*
X043250Y021321D03*
X040887Y016991D03*
X039805Y016991D03*
X043742Y015317D03*
X041773Y013940D03*
X040494Y014038D03*
X042069Y013152D03*
X042659Y013152D03*
X040494Y012660D03*
X040100Y012660D03*
X039706Y012660D03*
X039313Y012660D03*
X035769Y011577D03*
X037246Y010101D03*
X037935Y009707D03*
X037738Y008920D03*
X039116Y009117D03*
X039903Y008625D03*
X040297Y008920D03*
X041478Y009510D03*
X041281Y010396D03*
X040691Y010396D03*
X043053Y011085D03*
X043446Y010003D03*
X039509Y007345D03*
X041576Y006853D03*
X043446Y006459D03*
X043840Y003310D03*
X041281Y001735D03*
X039313Y001735D03*
X035769Y009018D03*
D32*
X001320Y000659D02*
X001320Y022495D01*
X021730Y022495D01*
X021706Y022454D01*
X021628Y022162D01*
X021628Y021859D01*
X021706Y021567D01*
X021858Y021305D01*
X022072Y021091D01*
X022334Y020940D01*
X022626Y020861D01*
X022928Y020861D01*
X023221Y020940D01*
X023483Y021091D01*
X023697Y021305D01*
X023848Y021567D01*
X023926Y021859D01*
X023926Y022162D01*
X023848Y022454D01*
X023824Y022495D01*
X035858Y022495D01*
X035709Y022346D01*
X035630Y022267D01*
X035588Y022165D01*
X035588Y019494D01*
X035630Y019391D01*
X036024Y018997D01*
X036127Y018955D01*
X036238Y018955D01*
X036238Y018888D01*
X036265Y018861D01*
X036238Y018834D01*
X036238Y018140D01*
X036367Y018011D01*
X036833Y018011D01*
X037205Y017639D01*
X037308Y017597D01*
X037990Y017597D01*
X038093Y017639D01*
X038172Y017718D01*
X038347Y017893D01*
X038406Y017893D01*
X038427Y017914D01*
X038448Y017893D01*
X038906Y017893D01*
X038927Y017914D01*
X038948Y017893D01*
X039406Y017893D01*
X039526Y018013D01*
X041333Y018013D01*
X041458Y018065D01*
X041554Y018160D01*
X041867Y018474D01*
X041963Y018570D01*
X042015Y018695D01*
X042015Y018779D01*
X042076Y018841D01*
X042076Y020204D01*
X042035Y020245D01*
X042337Y020245D01*
X042466Y020374D01*
X042466Y020546D01*
X043131Y020546D01*
X043526Y020151D01*
X043526Y018841D01*
X043655Y018712D01*
X044230Y018712D01*
X044234Y018715D01*
X044234Y017794D01*
X044227Y017801D01*
X043277Y017801D01*
X043148Y017672D01*
X043148Y016620D01*
X043095Y016620D01*
X043095Y017029D01*
X042611Y017029D01*
X042611Y017149D01*
X043095Y017149D01*
X043095Y017602D01*
X043084Y017643D01*
X043063Y017680D01*
X043033Y017709D01*
X042996Y017730D01*
X042956Y017741D01*
X042611Y017741D01*
X042611Y017149D01*
X042491Y017149D01*
X042491Y017741D01*
X042146Y017741D01*
X042105Y017730D01*
X042069Y017709D01*
X042039Y017680D01*
X042018Y017643D01*
X042007Y017602D01*
X042007Y017149D01*
X042491Y017149D01*
X042491Y017029D01*
X042611Y017029D01*
X042611Y016604D01*
X042498Y016491D01*
X042498Y015792D01*
X042383Y015792D01*
X042383Y015395D01*
X042306Y015395D01*
X042306Y015792D01*
X042126Y015792D01*
X042085Y015782D01*
X042049Y015760D01*
X042019Y015731D01*
X042013Y015720D01*
X042013Y015724D01*
X041884Y015852D01*
X041344Y015852D01*
X041344Y016377D01*
X041372Y016377D01*
X041501Y016506D01*
X041501Y017672D01*
X041372Y017801D01*
X040422Y017801D01*
X040293Y017672D01*
X040293Y016620D01*
X040240Y016620D01*
X040240Y017029D01*
X039756Y017029D01*
X039756Y016604D01*
X039644Y016491D01*
X039644Y015792D01*
X039528Y015792D01*
X039528Y015395D01*
X039451Y015395D01*
X039451Y015792D01*
X039272Y015792D01*
X039231Y015782D01*
X039195Y015760D01*
X039165Y015731D01*
X039159Y015720D01*
X039159Y015724D01*
X039030Y015852D01*
X038608Y015852D01*
X038608Y015865D01*
X038566Y015968D01*
X038487Y016047D01*
X038167Y016367D01*
X038167Y016631D01*
X037863Y016936D01*
X037432Y016936D01*
X037127Y016631D01*
X037127Y016201D01*
X037412Y015916D01*
X037147Y015651D01*
X036863Y015936D01*
X036432Y015936D01*
X036127Y015631D01*
X036127Y015201D01*
X036412Y014916D01*
X036127Y014631D01*
X036127Y014300D01*
X035532Y013704D01*
X035489Y013602D01*
X035489Y011805D01*
X035465Y011781D01*
X035410Y011649D01*
X035410Y011506D01*
X035428Y011464D01*
X032637Y011464D01*
X031245Y012856D01*
X031398Y012919D01*
X031671Y013193D01*
X031819Y013549D01*
X031819Y013936D01*
X031671Y014293D01*
X031398Y014566D01*
X031041Y014714D01*
X030655Y014714D01*
X030298Y014566D01*
X030025Y014293D01*
X029877Y013936D01*
X029877Y013549D01*
X030025Y013193D01*
X030298Y012919D01*
X030568Y012807D01*
X030568Y012801D01*
X030611Y012698D01*
X030689Y012619D01*
X032222Y011087D01*
X022187Y011087D01*
X020892Y012382D01*
X020892Y012807D01*
X021162Y012919D01*
X021435Y013193D01*
X021583Y013549D01*
X021583Y013936D01*
X021435Y014293D01*
X021162Y014566D01*
X020805Y014714D01*
X020419Y014714D01*
X020062Y014566D01*
X019788Y014293D01*
X019641Y013936D01*
X019641Y013549D01*
X019788Y013193D01*
X020062Y012919D01*
X020332Y012807D01*
X020332Y012211D01*
X020374Y012108D01*
X020453Y012029D01*
X021688Y010794D01*
X017493Y010794D01*
X017390Y010752D01*
X015272Y008633D01*
X015217Y008656D01*
X014983Y008656D01*
X014766Y008566D01*
X014600Y008400D01*
X014510Y008183D01*
X014510Y007948D01*
X014600Y007731D01*
X014766Y007566D01*
X014600Y007400D01*
X014510Y007183D01*
X014510Y006948D01*
X014600Y006731D01*
X014766Y006565D01*
X014847Y006532D01*
X014822Y006519D01*
X014755Y006470D01*
X014696Y006411D01*
X014647Y006343D01*
X014609Y006269D01*
X014583Y006190D01*
X014570Y006107D01*
X014570Y006106D01*
X015060Y006106D01*
X015060Y006026D01*
X014570Y006026D01*
X014570Y006024D01*
X014583Y005941D01*
X014609Y005862D01*
X014647Y005788D01*
X014696Y005720D01*
X014755Y005661D01*
X014822Y005612D01*
X014897Y005574D01*
X014976Y005549D01*
X015058Y005536D01*
X015060Y005536D01*
X015060Y006026D01*
X015140Y006026D01*
X015140Y006106D01*
X015630Y006106D01*
X015630Y006107D01*
X015617Y006190D01*
X015591Y006269D01*
X015553Y006343D01*
X015504Y006411D01*
X015445Y006470D01*
X015378Y006519D01*
X015353Y006532D01*
X015434Y006565D01*
X015600Y006731D01*
X015690Y006948D01*
X015690Y007183D01*
X015600Y007400D01*
X015434Y007566D01*
X015600Y007731D01*
X015690Y007948D01*
X015690Y008183D01*
X015668Y008237D01*
X017665Y010234D01*
X037574Y010234D01*
X037327Y009987D01*
X026363Y009987D01*
X026260Y009945D01*
X026182Y009866D01*
X017297Y009866D01*
X017415Y009985D02*
X026357Y009985D01*
X026182Y009866D02*
X024784Y008468D01*
X024705Y008389D01*
X024663Y008287D01*
X024663Y004607D01*
X023842Y003786D01*
X021547Y003786D01*
X021435Y004057D01*
X021162Y004330D01*
X020805Y004478D01*
X020419Y004478D01*
X020062Y004330D01*
X019788Y004057D01*
X019641Y003700D01*
X019641Y003313D01*
X019788Y002956D01*
X020062Y002683D01*
X020419Y002535D01*
X020805Y002535D01*
X021162Y002683D01*
X021435Y002956D01*
X021547Y003226D01*
X024014Y003226D01*
X024117Y003269D01*
X024196Y003348D01*
X025180Y004332D01*
X025223Y004435D01*
X025223Y008115D01*
X026535Y009427D01*
X035192Y009427D01*
X034941Y009177D01*
X034899Y009074D01*
X034899Y004607D01*
X034079Y003786D01*
X031783Y003786D01*
X031671Y004057D01*
X031398Y004330D01*
X031041Y004478D01*
X030655Y004478D01*
X030298Y004330D01*
X030025Y004057D01*
X029877Y003700D01*
X029877Y003313D01*
X030025Y002956D01*
X030298Y002683D01*
X030655Y002535D01*
X031041Y002535D01*
X031398Y002683D01*
X031671Y002956D01*
X031783Y003226D01*
X034250Y003226D01*
X034353Y003269D01*
X034432Y003348D01*
X035416Y004332D01*
X035459Y004435D01*
X035459Y008830D01*
X035465Y008815D01*
X035566Y008714D01*
X035698Y008659D01*
X035841Y008659D01*
X035973Y008714D01*
X036074Y008815D01*
X036083Y008837D01*
X037384Y008837D01*
X037433Y008716D01*
X037451Y008698D01*
X037451Y008116D01*
X037404Y008116D01*
X037275Y007987D01*
X037275Y007293D01*
X037355Y007214D01*
X037352Y007210D01*
X037342Y007169D01*
X037342Y006913D01*
X037697Y006913D01*
X037697Y006793D01*
X037342Y006793D01*
X037342Y006759D01*
X037139Y006962D01*
X037147Y006980D01*
X037147Y007214D01*
X037057Y007431D01*
X036891Y007597D01*
X036809Y007631D01*
X036834Y007644D01*
X036902Y007693D01*
X036961Y007752D01*
X037010Y007819D01*
X037048Y007894D01*
X037074Y007973D01*
X037087Y008055D01*
X037087Y008057D01*
X036597Y008057D01*
X036597Y008137D01*
X037087Y008137D01*
X037087Y008139D01*
X037074Y008221D01*
X037048Y008300D01*
X037010Y008375D01*
X036961Y008442D01*
X036902Y008501D01*
X036834Y008550D01*
X036760Y008588D01*
X036681Y008614D01*
X036598Y008627D01*
X036597Y008627D01*
X036597Y008137D01*
X036517Y008137D01*
X036517Y008627D01*
X036515Y008627D01*
X036433Y008614D01*
X036353Y008588D01*
X036279Y008550D01*
X036211Y008501D01*
X036152Y008442D01*
X036103Y008375D01*
X036066Y008300D01*
X036040Y008221D01*
X036027Y008139D01*
X036027Y008137D01*
X036517Y008137D01*
X036517Y008057D01*
X036027Y008057D01*
X036027Y008055D01*
X036040Y007973D01*
X036066Y007894D01*
X036103Y007819D01*
X036152Y007752D01*
X036211Y007693D01*
X036279Y007644D01*
X036304Y007631D01*
X036222Y007597D01*
X036057Y007431D01*
X035967Y007214D01*
X035967Y006980D01*
X036057Y006763D01*
X036222Y006597D01*
X036057Y006431D01*
X035967Y006214D01*
X035967Y005980D01*
X036057Y005763D01*
X036222Y005597D01*
X036057Y005431D01*
X035967Y005214D01*
X035967Y004980D01*
X036057Y004763D01*
X036222Y004597D01*
X036057Y004431D01*
X035967Y004214D01*
X035967Y003980D01*
X036057Y003763D01*
X036222Y003597D01*
X036439Y003507D01*
X036674Y003507D01*
X036891Y003597D01*
X037057Y003763D01*
X037147Y003980D01*
X037147Y004214D01*
X037057Y004431D01*
X036891Y004597D01*
X037057Y004763D01*
X037147Y004980D01*
X037147Y005214D01*
X037057Y005431D01*
X036891Y005597D01*
X037057Y005763D01*
X037147Y005980D01*
X037147Y006162D01*
X037205Y006104D01*
X037284Y006025D01*
X037387Y005982D01*
X041042Y005982D01*
X041144Y006025D01*
X041613Y006494D01*
X041648Y006494D01*
X041780Y006549D01*
X041789Y006558D01*
X041789Y006531D01*
X041711Y006452D01*
X041711Y005679D01*
X041840Y005550D01*
X042534Y005550D01*
X042609Y005626D01*
X042617Y005621D01*
X042658Y005610D01*
X042875Y005610D01*
X042875Y006006D01*
X042995Y006006D01*
X042995Y006126D01*
X042875Y006126D01*
X042875Y006521D01*
X042817Y006521D01*
X042817Y006755D01*
X042934Y006755D01*
X042934Y006378D01*
X042995Y006378D01*
X042995Y006126D01*
X043351Y006126D01*
X043351Y006382D01*
X043340Y006423D01*
X043319Y006459D01*
X043289Y006489D01*
X043268Y006501D01*
X043272Y006517D01*
X043272Y006755D01*
X042934Y006755D01*
X042934Y006872D01*
X043272Y006872D01*
X043272Y007110D01*
X043261Y007151D01*
X043240Y007187D01*
X043223Y007204D01*
X043332Y007313D01*
X043332Y008046D01*
X043273Y008105D01*
X043273Y008794D01*
X043197Y008870D01*
X043202Y008878D01*
X043213Y008918D01*
X043500Y008918D01*
X043500Y008800D02*
X043268Y008800D01*
X043273Y008681D02*
X043500Y008681D01*
X043500Y008563D02*
X043273Y008563D01*
X043273Y008444D02*
X043500Y008444D01*
X043500Y008326D02*
X043273Y008326D01*
X043273Y008207D02*
X043500Y008207D01*
X043500Y008089D02*
X043290Y008089D01*
X043332Y007970D02*
X043500Y007970D01*
X043500Y007852D02*
X043332Y007852D01*
X043332Y007733D02*
X043500Y007733D01*
X043500Y007615D02*
X043332Y007615D01*
X043332Y007496D02*
X043500Y007496D01*
X043500Y007378D02*
X043332Y007378D01*
X043278Y007259D02*
X043500Y007259D01*
X043500Y007141D02*
X043264Y007141D01*
X043272Y007022D02*
X043500Y007022D01*
X043500Y006904D02*
X043272Y006904D01*
X043272Y006667D02*
X043500Y006667D01*
X043500Y006785D02*
X042934Y006785D01*
X042876Y006814D02*
X042876Y006125D01*
X042935Y006066D01*
X043033Y005967D01*
X043446Y005967D01*
X043500Y005956D02*
X043351Y005956D01*
X043351Y006006D02*
X042995Y006006D01*
X042995Y005610D01*
X043212Y005610D01*
X043252Y005621D01*
X043289Y005642D01*
X043319Y005672D01*
X043340Y005708D01*
X043351Y005749D01*
X043351Y006006D01*
X043500Y006074D02*
X042995Y006074D01*
X042974Y006125D02*
X042935Y006066D01*
X042875Y005956D02*
X042995Y005956D01*
X042995Y005837D02*
X042875Y005837D01*
X042875Y005719D02*
X042995Y005719D01*
X043342Y005719D02*
X043500Y005719D01*
X043500Y005837D02*
X043351Y005837D01*
X043500Y005600D02*
X042584Y005600D01*
X041790Y005600D02*
X036894Y005600D01*
X037006Y005482D02*
X043500Y005482D01*
X043500Y005363D02*
X037085Y005363D01*
X037134Y005245D02*
X043500Y005245D01*
X043500Y005126D02*
X037147Y005126D01*
X037147Y005008D02*
X043500Y005008D01*
X043500Y004889D02*
X037109Y004889D01*
X037060Y004771D02*
X043500Y004771D01*
X043500Y004652D02*
X036946Y004652D01*
X036954Y004534D02*
X043500Y004534D01*
X043500Y004415D02*
X037064Y004415D01*
X037113Y004297D02*
X043500Y004297D01*
X043500Y004178D02*
X037147Y004178D01*
X037147Y004060D02*
X043500Y004060D01*
X043500Y003941D02*
X037131Y003941D01*
X037082Y003823D02*
X043500Y003823D01*
X043500Y003704D02*
X036998Y003704D01*
X036864Y003586D02*
X043500Y003586D01*
X043500Y003467D02*
X034551Y003467D01*
X034433Y003349D02*
X043481Y003349D01*
X043481Y003381D02*
X043481Y003238D01*
X043536Y003106D01*
X043637Y003005D01*
X043769Y002951D01*
X043912Y002951D01*
X044044Y003005D01*
X044145Y003106D01*
X044199Y003238D01*
X044199Y003381D01*
X044180Y003427D01*
X044180Y013810D01*
X044128Y013935D01*
X043765Y014299D01*
X043765Y014857D01*
X043761Y014861D01*
X044010Y014861D01*
X044139Y014990D01*
X044139Y015659D01*
X044198Y015718D01*
X044198Y016377D01*
X044227Y016377D01*
X044234Y016384D01*
X044234Y000659D01*
X023824Y000659D01*
X023848Y000701D01*
X023926Y000993D01*
X023926Y001296D01*
X023848Y001588D01*
X023697Y001850D01*
X023483Y002064D01*
X023221Y002215D01*
X022928Y002293D01*
X022626Y002293D01*
X022334Y002215D01*
X022072Y002064D01*
X021858Y001850D01*
X021706Y001588D01*
X021628Y001296D01*
X021628Y000993D01*
X021706Y000701D01*
X021730Y000659D01*
X001320Y000659D01*
X001320Y000742D02*
X021696Y000742D01*
X021664Y000860D02*
X001320Y000860D01*
X001320Y000979D02*
X021632Y000979D01*
X021628Y001097D02*
X001320Y001097D01*
X001320Y001216D02*
X021628Y001216D01*
X021639Y001334D02*
X001320Y001334D01*
X001320Y001453D02*
X021670Y001453D01*
X021702Y001571D02*
X001320Y001571D01*
X001320Y001690D02*
X021765Y001690D01*
X021834Y001808D02*
X013521Y001808D01*
X013477Y001783D02*
X013707Y001915D01*
X013895Y002103D01*
X014027Y002333D01*
X014096Y002589D01*
X014096Y002854D01*
X014027Y003110D01*
X013895Y003340D01*
X013707Y003528D01*
X013477Y003660D01*
X013221Y003729D01*
X012956Y003729D01*
X012700Y003660D01*
X012470Y003528D01*
X012282Y003340D01*
X012150Y003110D01*
X012081Y002854D01*
X012081Y002589D01*
X012150Y002333D01*
X012282Y002103D01*
X012470Y001915D01*
X012700Y001783D01*
X012956Y001714D01*
X013221Y001714D01*
X013477Y001783D01*
X013718Y001927D02*
X021935Y001927D01*
X022053Y002045D02*
X013837Y002045D01*
X013930Y002164D02*
X022245Y002164D01*
X022584Y002282D02*
X013998Y002282D01*
X014046Y002401D02*
X038853Y002401D01*
X038853Y002519D02*
X014077Y002519D01*
X014096Y002638D02*
X020172Y002638D01*
X019989Y002756D02*
X014096Y002756D01*
X014090Y002875D02*
X019870Y002875D01*
X019773Y002993D02*
X014059Y002993D01*
X014027Y003112D02*
X019724Y003112D01*
X019675Y003230D02*
X013958Y003230D01*
X013886Y003349D02*
X019641Y003349D01*
X019641Y003467D02*
X013768Y003467D01*
X013607Y003586D02*
X019641Y003586D01*
X019642Y003704D02*
X013314Y003704D01*
X012863Y003704D02*
X001320Y003704D01*
X001320Y003586D02*
X012570Y003586D01*
X012409Y003467D02*
X001320Y003467D01*
X001320Y003349D02*
X012291Y003349D01*
X012219Y003230D02*
X001320Y003230D01*
X001320Y003112D02*
X012151Y003112D01*
X012118Y002993D02*
X001320Y002993D01*
X001320Y002875D02*
X012087Y002875D01*
X012081Y002756D02*
X001320Y002756D01*
X001320Y002638D02*
X012081Y002638D01*
X012100Y002519D02*
X001320Y002519D01*
X001320Y002401D02*
X012132Y002401D01*
X012179Y002282D02*
X001320Y002282D01*
X001320Y002164D02*
X012247Y002164D01*
X012340Y002045D02*
X001320Y002045D01*
X001320Y001927D02*
X012459Y001927D01*
X012656Y001808D02*
X001320Y001808D01*
X001320Y003823D02*
X019692Y003823D01*
X019741Y003941D02*
X001320Y003941D01*
X001320Y004060D02*
X017744Y004060D01*
X017860Y004012D02*
X018246Y004012D01*
X018603Y004160D01*
X018876Y004433D01*
X019024Y004790D01*
X019024Y005176D01*
X018876Y005533D01*
X018603Y005806D01*
X018246Y005954D01*
X017860Y005954D01*
X017503Y005806D01*
X017229Y005533D01*
X017082Y005176D01*
X017082Y004790D01*
X017229Y004433D01*
X017503Y004160D01*
X017860Y004012D01*
X017484Y004178D02*
X001320Y004178D01*
X001320Y004297D02*
X017366Y004297D01*
X017247Y004415D02*
X001320Y004415D01*
X001320Y004534D02*
X017188Y004534D01*
X017139Y004652D02*
X001320Y004652D01*
X001320Y004771D02*
X017089Y004771D01*
X017082Y004889D02*
X001320Y004889D01*
X001320Y005008D02*
X017082Y005008D01*
X017082Y005126D02*
X001320Y005126D01*
X001320Y005245D02*
X017110Y005245D01*
X017159Y005363D02*
X001320Y005363D01*
X001320Y005482D02*
X017208Y005482D01*
X017297Y005600D02*
X015354Y005600D01*
X015378Y005612D02*
X015445Y005661D01*
X015504Y005720D01*
X015553Y005788D01*
X015591Y005862D01*
X015617Y005941D01*
X015630Y006024D01*
X015630Y006026D01*
X015140Y006026D01*
X015140Y005536D01*
X015142Y005536D01*
X015224Y005549D01*
X015303Y005574D01*
X015378Y005612D01*
X015503Y005719D02*
X017415Y005719D01*
X017577Y005837D02*
X015578Y005837D01*
X015619Y005956D02*
X024663Y005956D01*
X024663Y006074D02*
X015140Y006074D01*
X015060Y006074D02*
X001320Y006074D01*
X001320Y005956D02*
X014581Y005956D01*
X014622Y005837D02*
X001320Y005837D01*
X001320Y005719D02*
X014697Y005719D01*
X014846Y005600D02*
X001320Y005600D01*
X001320Y006193D02*
X014584Y006193D01*
X014630Y006311D02*
X001320Y006311D01*
X001320Y006430D02*
X014715Y006430D01*
X014807Y006548D02*
X001320Y006548D01*
X001320Y006667D02*
X014665Y006667D01*
X014578Y006785D02*
X001320Y006785D01*
X001320Y006904D02*
X014528Y006904D01*
X014510Y007022D02*
X001320Y007022D01*
X001320Y007141D02*
X014510Y007141D01*
X014542Y007259D02*
X001320Y007259D01*
X001320Y007378D02*
X014591Y007378D01*
X014696Y007496D02*
X001320Y007496D01*
X001320Y007615D02*
X014717Y007615D01*
X014599Y007733D02*
X001320Y007733D01*
X001320Y007852D02*
X014550Y007852D01*
X014510Y007970D02*
X001320Y007970D01*
X001320Y008089D02*
X014510Y008089D01*
X014520Y008207D02*
X001320Y008207D01*
X001320Y008326D02*
X014569Y008326D01*
X014644Y008444D02*
X001320Y008444D01*
X001320Y008563D02*
X014763Y008563D01*
X015320Y008681D02*
X001320Y008681D01*
X001320Y008800D02*
X015438Y008800D01*
X015557Y008918D02*
X001320Y008918D01*
X001320Y009037D02*
X015675Y009037D01*
X015794Y009155D02*
X001320Y009155D01*
X001320Y009274D02*
X015912Y009274D01*
X016031Y009392D02*
X001320Y009392D01*
X001320Y009511D02*
X016149Y009511D01*
X016268Y009629D02*
X001320Y009629D01*
X001320Y009748D02*
X016386Y009748D01*
X016505Y009866D02*
X001320Y009866D01*
X001320Y009985D02*
X016623Y009985D01*
X016742Y010103D02*
X001320Y010103D01*
X001320Y010222D02*
X016860Y010222D01*
X016979Y010340D02*
X001320Y010340D01*
X001320Y010459D02*
X017097Y010459D01*
X017216Y010577D02*
X001320Y010577D01*
X001320Y010696D02*
X017334Y010696D01*
X017549Y010514D02*
X015100Y008066D01*
X015650Y007852D02*
X017082Y007852D01*
X017082Y007742D02*
X017229Y007385D01*
X017503Y007112D01*
X017860Y006964D01*
X018246Y006964D01*
X018603Y007112D01*
X018876Y007385D01*
X019024Y007742D01*
X019024Y008129D01*
X018876Y008486D01*
X018603Y008759D01*
X018246Y008907D01*
X017860Y008907D01*
X017503Y008759D01*
X017229Y008486D01*
X017082Y008129D01*
X017082Y007742D01*
X017085Y007733D02*
X015601Y007733D01*
X015483Y007615D02*
X017135Y007615D01*
X017184Y007496D02*
X015504Y007496D01*
X015609Y007378D02*
X017237Y007378D01*
X017356Y007259D02*
X015658Y007259D01*
X015690Y007141D02*
X017474Y007141D01*
X017720Y007022D02*
X015690Y007022D01*
X015672Y006904D02*
X024663Y006904D01*
X024663Y007022D02*
X018385Y007022D01*
X018631Y007141D02*
X022725Y007141D01*
X022767Y007117D02*
X022877Y007071D01*
X022993Y007040D01*
X023111Y007024D01*
X023111Y007876D01*
X022260Y007876D01*
X022275Y007757D01*
X022306Y007642D01*
X022352Y007532D01*
X022412Y007428D01*
X022484Y007334D01*
X022569Y007249D01*
X022664Y007176D01*
X022767Y007117D01*
X022559Y007259D02*
X018750Y007259D01*
X018868Y007378D02*
X022450Y007378D01*
X022372Y007496D02*
X018922Y007496D01*
X018971Y007615D02*
X022318Y007615D01*
X022282Y007733D02*
X019020Y007733D01*
X019024Y007852D02*
X022263Y007852D01*
X022260Y007996D02*
X023111Y007996D01*
X023111Y008847D01*
X022993Y008831D01*
X022877Y008800D01*
X022767Y008755D01*
X022664Y008695D01*
X022569Y008622D01*
X022484Y008538D01*
X022412Y008443D01*
X022352Y008339D01*
X022306Y008229D01*
X022275Y008114D01*
X022260Y007996D01*
X022272Y008089D02*
X019024Y008089D01*
X019024Y007970D02*
X023111Y007970D01*
X023111Y007996D02*
X023111Y007876D01*
X023231Y007876D01*
X023231Y007996D01*
X023111Y007996D01*
X023111Y008089D02*
X023231Y008089D01*
X023231Y007996D02*
X023231Y008847D01*
X023349Y008831D01*
X023464Y008800D01*
X023575Y008755D01*
X023678Y008695D01*
X023773Y008622D01*
X023857Y008538D01*
X023930Y008443D01*
X023990Y008339D01*
X024036Y008229D01*
X024066Y008114D01*
X024082Y007996D01*
X023231Y007996D01*
X023231Y007970D02*
X024663Y007970D01*
X024663Y007852D02*
X024079Y007852D01*
X024082Y007876D02*
X023231Y007876D01*
X023231Y007024D01*
X023349Y007040D01*
X023464Y007071D01*
X023575Y007117D01*
X023678Y007176D01*
X023773Y007249D01*
X023857Y007334D01*
X023930Y007428D01*
X023990Y007532D01*
X024036Y007642D01*
X024066Y007757D01*
X024082Y007876D01*
X024060Y007733D02*
X024663Y007733D01*
X024663Y007615D02*
X024024Y007615D01*
X023969Y007496D02*
X024663Y007496D01*
X024663Y007378D02*
X023891Y007378D01*
X023783Y007259D02*
X024663Y007259D01*
X024663Y007141D02*
X023616Y007141D01*
X023231Y007141D02*
X023111Y007141D01*
X023111Y007259D02*
X023231Y007259D01*
X023231Y007378D02*
X023111Y007378D01*
X023111Y007496D02*
X023231Y007496D01*
X023231Y007615D02*
X023111Y007615D01*
X023111Y007733D02*
X023231Y007733D01*
X023231Y007852D02*
X023111Y007852D01*
X023111Y008207D02*
X023231Y008207D01*
X023231Y008326D02*
X023111Y008326D01*
X023111Y008444D02*
X023231Y008444D01*
X023231Y008563D02*
X023111Y008563D01*
X023111Y008681D02*
X023231Y008681D01*
X023231Y008800D02*
X023111Y008800D01*
X022876Y008800D02*
X018505Y008800D01*
X018681Y008681D02*
X022646Y008681D01*
X022509Y008563D02*
X018799Y008563D01*
X018893Y008444D02*
X022413Y008444D01*
X022346Y008326D02*
X018942Y008326D01*
X018991Y008207D02*
X022300Y008207D01*
X023466Y008800D02*
X025115Y008800D01*
X025234Y008918D02*
X016349Y008918D01*
X016467Y009037D02*
X025352Y009037D01*
X025471Y009155D02*
X016586Y009155D01*
X016704Y009274D02*
X025589Y009274D01*
X025708Y009392D02*
X016823Y009392D01*
X016941Y009511D02*
X025826Y009511D01*
X025945Y009629D02*
X017060Y009629D01*
X017178Y009748D02*
X026063Y009748D01*
X026419Y009707D02*
X037443Y009707D01*
X037935Y010199D01*
X038607Y010199D01*
X039077Y010222D02*
X040374Y010222D01*
X040386Y010193D02*
X040487Y010092D01*
X040619Y010037D01*
X040762Y010037D01*
X040894Y010092D01*
X040986Y010184D01*
X041078Y010092D01*
X041210Y010037D01*
X041353Y010037D01*
X041484Y010092D01*
X041517Y010124D01*
X041517Y009998D01*
X041577Y009938D01*
X041577Y009884D01*
X041577Y009858D01*
X041549Y009869D01*
X041482Y009869D01*
X041435Y009889D01*
X040733Y009889D01*
X040630Y009846D01*
X040552Y009767D01*
X040319Y009534D01*
X039198Y009534D01*
X039095Y009492D01*
X039079Y009476D01*
X039057Y009476D01*
X039017Y009516D01*
X039017Y009569D01*
X038963Y009569D01*
X038963Y009569D01*
X038963Y009569D01*
X039017Y009569D01*
X039017Y009623D01*
X039077Y009683D01*
X039077Y010632D01*
X040419Y010632D01*
X040386Y010600D01*
X040331Y010468D01*
X040331Y010325D01*
X040386Y010193D01*
X040476Y010103D02*
X039077Y010103D01*
X039077Y009985D02*
X041530Y009985D01*
X041577Y009884D02*
X041631Y009884D01*
X041577Y009884D01*
X041577Y009866D02*
X041557Y009866D01*
X041631Y009884D02*
X041631Y009884D01*
X041631Y009884D01*
X041517Y010103D02*
X041496Y010103D01*
X041281Y010396D02*
X041084Y010593D01*
X041084Y011102D01*
X040789Y011082D02*
X040789Y010495D01*
X040691Y010396D01*
X040377Y010577D02*
X039077Y010577D01*
X039077Y010459D02*
X040331Y010459D01*
X040331Y010340D02*
X039077Y010340D01*
X038607Y010514D02*
X017549Y010514D01*
X017652Y010222D02*
X037561Y010222D01*
X037442Y010103D02*
X017534Y010103D01*
X017601Y008800D02*
X016230Y008800D01*
X016112Y008681D02*
X017425Y008681D01*
X017306Y008563D02*
X015993Y008563D01*
X015875Y008444D02*
X017212Y008444D01*
X017163Y008326D02*
X015756Y008326D01*
X015680Y008207D02*
X017114Y008207D01*
X017082Y008089D02*
X015690Y008089D01*
X015690Y007970D02*
X017082Y007970D01*
X015622Y006785D02*
X024663Y006785D01*
X024663Y006667D02*
X015535Y006667D01*
X015393Y006548D02*
X024663Y006548D01*
X024663Y006430D02*
X015485Y006430D01*
X015570Y006311D02*
X024663Y006311D01*
X024663Y006193D02*
X015616Y006193D01*
X015140Y005956D02*
X015060Y005956D01*
X015060Y005837D02*
X015140Y005837D01*
X015140Y005719D02*
X015060Y005719D01*
X015060Y005600D02*
X015140Y005600D01*
X018528Y005837D02*
X022695Y005837D01*
X022621Y005806D02*
X022348Y005533D01*
X022200Y005176D01*
X022200Y004790D01*
X022348Y004433D01*
X022621Y004160D01*
X022978Y004012D01*
X023364Y004012D01*
X023721Y004160D01*
X023994Y004433D01*
X024142Y004790D01*
X024142Y005176D01*
X023994Y005533D01*
X023721Y005806D01*
X023364Y005954D01*
X022978Y005954D01*
X022621Y005806D01*
X022533Y005719D02*
X018690Y005719D01*
X018809Y005600D02*
X022415Y005600D01*
X022326Y005482D02*
X018897Y005482D01*
X018946Y005363D02*
X022277Y005363D01*
X022228Y005245D02*
X018996Y005245D01*
X019024Y005126D02*
X022200Y005126D01*
X022200Y005008D02*
X019024Y005008D01*
X019024Y004889D02*
X022200Y004889D01*
X022208Y004771D02*
X019016Y004771D01*
X018967Y004652D02*
X022257Y004652D01*
X022306Y004534D02*
X018918Y004534D01*
X018858Y004415D02*
X020268Y004415D01*
X020029Y004297D02*
X018740Y004297D01*
X018621Y004178D02*
X019910Y004178D01*
X019792Y004060D02*
X018362Y004060D01*
X020612Y003506D02*
X023958Y003506D01*
X024943Y004491D01*
X024943Y008231D01*
X026419Y009707D01*
X026500Y009392D02*
X035157Y009392D01*
X035038Y009274D02*
X026381Y009274D01*
X026263Y009155D02*
X034932Y009155D01*
X034899Y009037D02*
X026144Y009037D01*
X026026Y008918D02*
X034899Y008918D01*
X034899Y008800D02*
X033702Y008800D01*
X033701Y008800D02*
X033585Y008831D01*
X033467Y008847D01*
X033467Y007996D01*
X033347Y007996D01*
X033347Y008847D01*
X033229Y008831D01*
X033114Y008800D01*
X033003Y008755D01*
X032900Y008695D01*
X032805Y008622D01*
X032721Y008538D01*
X032648Y008443D01*
X032588Y008339D01*
X032542Y008229D01*
X032511Y008114D01*
X032496Y007996D01*
X033347Y007996D01*
X033347Y007876D01*
X032496Y007876D01*
X032511Y007757D01*
X032542Y007642D01*
X032588Y007532D01*
X032648Y007428D01*
X032721Y007334D01*
X032805Y007249D01*
X032900Y007176D01*
X033003Y007117D01*
X033114Y007071D01*
X033229Y007040D01*
X033347Y007024D01*
X033347Y007876D01*
X033467Y007876D01*
X033467Y007996D01*
X034318Y007996D01*
X034303Y008114D01*
X034272Y008229D01*
X034226Y008339D01*
X034166Y008443D01*
X034094Y008538D01*
X034009Y008622D01*
X033914Y008695D01*
X033811Y008755D01*
X033701Y008800D01*
X033467Y008800D02*
X033347Y008800D01*
X033347Y008681D02*
X033467Y008681D01*
X033467Y008563D02*
X033347Y008563D01*
X033347Y008444D02*
X033467Y008444D01*
X033467Y008326D02*
X033347Y008326D01*
X033347Y008207D02*
X033467Y008207D01*
X033467Y008089D02*
X033347Y008089D01*
X033347Y007970D02*
X029260Y007970D01*
X029260Y007852D02*
X032499Y007852D01*
X032518Y007733D02*
X029256Y007733D01*
X029260Y007742D02*
X029112Y007385D01*
X028839Y007112D01*
X028482Y006964D01*
X028096Y006964D01*
X027739Y007112D01*
X027466Y007385D01*
X027318Y007742D01*
X027318Y008129D01*
X027466Y008486D01*
X027739Y008759D01*
X028096Y008907D01*
X028482Y008907D01*
X028839Y008759D01*
X029112Y008486D01*
X029260Y008129D01*
X029260Y007742D01*
X029207Y007615D02*
X032554Y007615D01*
X032609Y007496D02*
X029158Y007496D01*
X029104Y007378D02*
X032687Y007378D01*
X032795Y007259D02*
X028986Y007259D01*
X028867Y007141D02*
X032962Y007141D01*
X033347Y007141D02*
X033467Y007141D01*
X033467Y007024D02*
X033585Y007040D01*
X033701Y007071D01*
X033811Y007117D01*
X033914Y007176D01*
X034009Y007249D01*
X034094Y007334D01*
X034166Y007428D01*
X034226Y007532D01*
X034272Y007642D01*
X034303Y007757D01*
X034318Y007876D01*
X033467Y007876D01*
X033467Y007024D01*
X033467Y007259D02*
X033347Y007259D01*
X033347Y007378D02*
X033467Y007378D01*
X033467Y007496D02*
X033347Y007496D01*
X033347Y007615D02*
X033467Y007615D01*
X033467Y007733D02*
X033347Y007733D01*
X033347Y007852D02*
X033467Y007852D01*
X033467Y007970D02*
X034899Y007970D01*
X034899Y007852D02*
X034315Y007852D01*
X034296Y007733D02*
X034899Y007733D01*
X034899Y007615D02*
X034260Y007615D01*
X034205Y007496D02*
X034899Y007496D01*
X034899Y007378D02*
X034127Y007378D01*
X034019Y007259D02*
X034899Y007259D01*
X034899Y007141D02*
X033853Y007141D01*
X034899Y007022D02*
X028621Y007022D01*
X027956Y007022D02*
X025223Y007022D01*
X025223Y006904D02*
X034899Y006904D01*
X034899Y006785D02*
X025223Y006785D01*
X025223Y006667D02*
X034899Y006667D01*
X034899Y006548D02*
X025223Y006548D01*
X025223Y006430D02*
X034899Y006430D01*
X034899Y006311D02*
X025223Y006311D01*
X025223Y006193D02*
X034899Y006193D01*
X034899Y006074D02*
X025223Y006074D01*
X025223Y005956D02*
X034899Y005956D01*
X034899Y005837D02*
X033882Y005837D01*
X033957Y005806D02*
X033600Y005954D01*
X033214Y005954D01*
X032857Y005806D01*
X032584Y005533D01*
X032436Y005176D01*
X032436Y004790D01*
X032584Y004433D01*
X032857Y004160D01*
X033214Y004012D01*
X033600Y004012D01*
X033957Y004160D01*
X034230Y004433D01*
X034378Y004790D01*
X034378Y005176D01*
X034230Y005533D01*
X033957Y005806D01*
X034045Y005719D02*
X034899Y005719D01*
X034899Y005600D02*
X034163Y005600D01*
X034252Y005482D02*
X034899Y005482D01*
X034899Y005363D02*
X034301Y005363D01*
X034350Y005245D02*
X034899Y005245D01*
X034899Y005126D02*
X034378Y005126D01*
X034378Y005008D02*
X034899Y005008D01*
X034899Y004889D02*
X034378Y004889D01*
X034370Y004771D02*
X034899Y004771D01*
X034899Y004652D02*
X034321Y004652D01*
X034272Y004534D02*
X034826Y004534D01*
X034707Y004415D02*
X034213Y004415D01*
X034094Y004297D02*
X034589Y004297D01*
X034470Y004178D02*
X033976Y004178D01*
X033716Y004060D02*
X034352Y004060D01*
X034233Y003941D02*
X031719Y003941D01*
X031768Y003823D02*
X034115Y003823D01*
X034194Y003506D02*
X030848Y003506D01*
X029960Y003112D02*
X021499Y003112D01*
X021450Y002993D02*
X030009Y002993D01*
X030106Y002875D02*
X021353Y002875D01*
X021235Y002756D02*
X030225Y002756D01*
X030408Y002638D02*
X021052Y002638D01*
X022970Y002282D02*
X038853Y002282D01*
X038853Y002164D02*
X023310Y002164D01*
X023501Y002045D02*
X038853Y002045D01*
X038853Y001927D02*
X023620Y001927D01*
X023721Y001808D02*
X038853Y001808D01*
X038853Y001795D02*
X039253Y001795D01*
X039253Y002695D01*
X038992Y002695D01*
X038951Y002684D01*
X038914Y002663D01*
X038885Y002633D01*
X038864Y002597D01*
X038853Y002556D01*
X038853Y001795D01*
X038853Y001675D02*
X038853Y000914D01*
X038864Y000873D01*
X038885Y000837D01*
X038914Y000807D01*
X038951Y000786D01*
X038992Y000775D01*
X039253Y000775D01*
X039253Y001675D01*
X039373Y001675D01*
X039373Y001795D01*
X039773Y001795D01*
X039773Y002556D01*
X039762Y002597D01*
X039741Y002633D01*
X039711Y002663D01*
X039674Y002684D01*
X039634Y002695D01*
X039373Y002695D01*
X039373Y001795D01*
X039253Y001795D01*
X039253Y001675D01*
X038853Y001675D01*
X038853Y001571D02*
X023852Y001571D01*
X023884Y001453D02*
X038853Y001453D01*
X038853Y001334D02*
X023916Y001334D01*
X023926Y001216D02*
X038853Y001216D01*
X038853Y001097D02*
X023926Y001097D01*
X023922Y000979D02*
X038853Y000979D01*
X038871Y000860D02*
X023891Y000860D01*
X023859Y000742D02*
X044234Y000742D01*
X044234Y000860D02*
X041754Y000860D01*
X041762Y000873D02*
X041773Y000914D01*
X041773Y001675D01*
X041373Y001675D01*
X041373Y001795D01*
X041773Y001795D01*
X041773Y002556D01*
X041762Y002597D01*
X041741Y002633D01*
X041711Y002663D01*
X041674Y002684D01*
X041634Y002695D01*
X041373Y002695D01*
X041373Y001795D01*
X041253Y001795D01*
X041253Y002695D01*
X040992Y002695D01*
X040951Y002684D01*
X040914Y002663D01*
X040885Y002633D01*
X040864Y002597D01*
X040853Y002556D01*
X040853Y001795D01*
X041253Y001795D01*
X041253Y001675D01*
X041373Y001675D01*
X041373Y000775D01*
X041634Y000775D01*
X041674Y000786D01*
X041711Y000807D01*
X041741Y000837D01*
X041762Y000873D01*
X041773Y000979D02*
X044234Y000979D01*
X044234Y001097D02*
X041773Y001097D01*
X041773Y001216D02*
X044234Y001216D01*
X044234Y001334D02*
X041773Y001334D01*
X041773Y001453D02*
X044234Y001453D01*
X044234Y001571D02*
X041773Y001571D01*
X041773Y001808D02*
X044234Y001808D01*
X044234Y001690D02*
X041373Y001690D01*
X041313Y001735D02*
X041281Y001735D01*
X041253Y001690D02*
X039373Y001690D01*
X039373Y001675D02*
X039773Y001675D01*
X039773Y000914D01*
X039762Y000873D01*
X039741Y000837D01*
X039711Y000807D01*
X039674Y000786D01*
X039634Y000775D01*
X039373Y000775D01*
X039373Y001675D01*
X039373Y001571D02*
X039253Y001571D01*
X039253Y001453D02*
X039373Y001453D01*
X039373Y001334D02*
X039253Y001334D01*
X039253Y001216D02*
X039373Y001216D01*
X039373Y001097D02*
X039253Y001097D01*
X039253Y000979D02*
X039373Y000979D01*
X039373Y000860D02*
X039253Y000860D01*
X039754Y000860D02*
X040871Y000860D01*
X040864Y000873D02*
X040885Y000837D01*
X040914Y000807D01*
X040951Y000786D01*
X040992Y000775D01*
X041253Y000775D01*
X041253Y001675D01*
X040853Y001675D01*
X040853Y000914D01*
X040864Y000873D01*
X040853Y000979D02*
X039773Y000979D01*
X039773Y001097D02*
X040853Y001097D01*
X040853Y001216D02*
X039773Y001216D01*
X039773Y001334D02*
X040853Y001334D01*
X040853Y001453D02*
X039773Y001453D01*
X039773Y001571D02*
X040853Y001571D01*
X040853Y001808D02*
X039773Y001808D01*
X039773Y001927D02*
X040853Y001927D01*
X040853Y002045D02*
X039773Y002045D01*
X039773Y002164D02*
X040853Y002164D01*
X040853Y002282D02*
X039773Y002282D01*
X039773Y002401D02*
X040853Y002401D01*
X040853Y002519D02*
X039773Y002519D01*
X039736Y002638D02*
X040889Y002638D01*
X041253Y002638D02*
X041373Y002638D01*
X041373Y002519D02*
X041253Y002519D01*
X041253Y002401D02*
X041373Y002401D01*
X041373Y002282D02*
X041253Y002282D01*
X041253Y002164D02*
X041373Y002164D01*
X041373Y002045D02*
X041253Y002045D01*
X041253Y001927D02*
X041373Y001927D01*
X041373Y001808D02*
X041253Y001808D01*
X041253Y001571D02*
X041373Y001571D01*
X041373Y001453D02*
X041253Y001453D01*
X041253Y001334D02*
X041373Y001334D01*
X041373Y001216D02*
X041253Y001216D01*
X041253Y001097D02*
X041373Y001097D01*
X041373Y000979D02*
X041253Y000979D01*
X041253Y000860D02*
X041373Y000860D01*
X041773Y001927D02*
X044234Y001927D01*
X044234Y002045D02*
X041773Y002045D01*
X041773Y002164D02*
X044234Y002164D01*
X044234Y002282D02*
X041773Y002282D01*
X041773Y002401D02*
X044234Y002401D01*
X044234Y002519D02*
X041773Y002519D01*
X041736Y002638D02*
X044234Y002638D01*
X044234Y002756D02*
X031471Y002756D01*
X031590Y002875D02*
X044234Y002875D01*
X044234Y002993D02*
X044014Y002993D01*
X044147Y003112D02*
X044234Y003112D01*
X044234Y003230D02*
X044196Y003230D01*
X044199Y003349D02*
X044234Y003349D01*
X044234Y003467D02*
X044180Y003467D01*
X044180Y003586D02*
X044234Y003586D01*
X044234Y003704D02*
X044180Y003704D01*
X044180Y003823D02*
X044234Y003823D01*
X044234Y003941D02*
X044180Y003941D01*
X044180Y004060D02*
X044234Y004060D01*
X044234Y004178D02*
X044180Y004178D01*
X044180Y004297D02*
X044234Y004297D01*
X044234Y004415D02*
X044180Y004415D01*
X044180Y004534D02*
X044234Y004534D01*
X044234Y004652D02*
X044180Y004652D01*
X044180Y004771D02*
X044234Y004771D01*
X044234Y004889D02*
X044180Y004889D01*
X044180Y005008D02*
X044234Y005008D01*
X044234Y005126D02*
X044180Y005126D01*
X044180Y005245D02*
X044234Y005245D01*
X044234Y005363D02*
X044180Y005363D01*
X044180Y005482D02*
X044234Y005482D01*
X044234Y005600D02*
X044180Y005600D01*
X044180Y005719D02*
X044234Y005719D01*
X044234Y005837D02*
X044180Y005837D01*
X044180Y005956D02*
X044234Y005956D01*
X044234Y006074D02*
X044180Y006074D01*
X044180Y006193D02*
X044234Y006193D01*
X044234Y006311D02*
X044180Y006311D01*
X044180Y006430D02*
X044234Y006430D01*
X044234Y006548D02*
X044180Y006548D01*
X044180Y006667D02*
X044234Y006667D01*
X044234Y006785D02*
X044180Y006785D01*
X044180Y006904D02*
X044234Y006904D01*
X044234Y007022D02*
X044180Y007022D01*
X044180Y007141D02*
X044234Y007141D01*
X044234Y007259D02*
X044180Y007259D01*
X044180Y007378D02*
X044234Y007378D01*
X044234Y007496D02*
X044180Y007496D01*
X044180Y007615D02*
X044234Y007615D01*
X044234Y007733D02*
X044180Y007733D01*
X044180Y007852D02*
X044234Y007852D01*
X044234Y007970D02*
X044180Y007970D01*
X044180Y008089D02*
X044234Y008089D01*
X044234Y008207D02*
X044180Y008207D01*
X044180Y008326D02*
X044234Y008326D01*
X044234Y008444D02*
X044180Y008444D01*
X044180Y008563D02*
X044234Y008563D01*
X044234Y008681D02*
X044180Y008681D01*
X044180Y008800D02*
X044234Y008800D01*
X044234Y008918D02*
X044180Y008918D01*
X044180Y009037D02*
X044234Y009037D01*
X044234Y009155D02*
X044180Y009155D01*
X044180Y009274D02*
X044234Y009274D01*
X044234Y009392D02*
X044180Y009392D01*
X044180Y009511D02*
X044234Y009511D01*
X044234Y009629D02*
X044180Y009629D01*
X044180Y009748D02*
X044234Y009748D01*
X044234Y009866D02*
X044180Y009866D01*
X044180Y009985D02*
X044234Y009985D01*
X044234Y010103D02*
X044180Y010103D01*
X044180Y010222D02*
X044234Y010222D01*
X044234Y010340D02*
X044180Y010340D01*
X044180Y010459D02*
X044234Y010459D01*
X044234Y010577D02*
X044180Y010577D01*
X044180Y010696D02*
X044234Y010696D01*
X044234Y010814D02*
X044180Y010814D01*
X044180Y010933D02*
X044234Y010933D01*
X044234Y011051D02*
X044180Y011051D01*
X044180Y011170D02*
X044234Y011170D01*
X044234Y011288D02*
X044180Y011288D01*
X044180Y011407D02*
X044234Y011407D01*
X044234Y011525D02*
X044180Y011525D01*
X044180Y011644D02*
X044234Y011644D01*
X044234Y011762D02*
X044180Y011762D01*
X044180Y011881D02*
X044234Y011881D01*
X044234Y011999D02*
X044180Y011999D01*
X044180Y012118D02*
X044234Y012118D01*
X044234Y012236D02*
X044180Y012236D01*
X044180Y012355D02*
X044234Y012355D01*
X044234Y012473D02*
X044180Y012473D01*
X044180Y012592D02*
X044234Y012592D01*
X044234Y012710D02*
X044180Y012710D01*
X044180Y012829D02*
X044234Y012829D01*
X044234Y012947D02*
X044180Y012947D01*
X044180Y013066D02*
X044234Y013066D01*
X044234Y013184D02*
X044180Y013184D01*
X044180Y013303D02*
X044234Y013303D01*
X044234Y013421D02*
X044180Y013421D01*
X044180Y013540D02*
X044234Y013540D01*
X044234Y013658D02*
X044180Y013658D01*
X044180Y013777D02*
X044234Y013777D01*
X044234Y013895D02*
X044145Y013895D01*
X044234Y014014D02*
X044050Y014014D01*
X043932Y014132D02*
X044234Y014132D01*
X044234Y014251D02*
X043813Y014251D01*
X043765Y014369D02*
X044234Y014369D01*
X044234Y014488D02*
X043765Y014488D01*
X043765Y014606D02*
X044234Y014606D01*
X044234Y014725D02*
X043765Y014725D01*
X043765Y014843D02*
X044234Y014843D01*
X044234Y014962D02*
X044110Y014962D01*
X044139Y015080D02*
X044234Y015080D01*
X044234Y015199D02*
X044139Y015199D01*
X044139Y015317D02*
X044234Y015317D01*
X044234Y015436D02*
X044139Y015436D01*
X044139Y015554D02*
X044234Y015554D01*
X044234Y015673D02*
X044152Y015673D01*
X044198Y015791D02*
X044234Y015791D01*
X044234Y015910D02*
X044198Y015910D01*
X044198Y016028D02*
X044234Y016028D01*
X044234Y016147D02*
X044198Y016147D01*
X044198Y016265D02*
X044234Y016265D01*
X044233Y016384D02*
X044234Y016384D01*
X043148Y016621D02*
X043095Y016621D01*
X043095Y016739D02*
X043148Y016739D01*
X043148Y016858D02*
X043095Y016858D01*
X043095Y016976D02*
X043148Y016976D01*
X043148Y017095D02*
X042611Y017095D01*
X042611Y017213D02*
X042491Y017213D01*
X042491Y017095D02*
X041501Y017095D01*
X041501Y017213D02*
X042007Y017213D01*
X042007Y017332D02*
X041501Y017332D01*
X041501Y017450D02*
X042007Y017450D01*
X042007Y017569D02*
X041501Y017569D01*
X041486Y017687D02*
X042047Y017687D01*
X042491Y017687D02*
X042611Y017687D01*
X042611Y017569D02*
X042491Y017569D01*
X042491Y017450D02*
X042611Y017450D01*
X042611Y017332D02*
X042491Y017332D01*
X042491Y017029D02*
X042007Y017029D01*
X042007Y016576D01*
X042018Y016535D01*
X042039Y016499D01*
X042069Y016469D01*
X042105Y016448D01*
X042146Y016437D01*
X042491Y016437D01*
X042491Y017029D01*
X042491Y016976D02*
X042611Y016976D01*
X042611Y016858D02*
X042491Y016858D01*
X042491Y016739D02*
X042611Y016739D01*
X042611Y016621D02*
X042491Y016621D01*
X042491Y016502D02*
X042509Y016502D01*
X042498Y016384D02*
X041379Y016384D01*
X041344Y016265D02*
X042498Y016265D01*
X042498Y016147D02*
X041344Y016147D01*
X041344Y016028D02*
X042498Y016028D01*
X042498Y015910D02*
X041344Y015910D01*
X041945Y015791D02*
X042121Y015791D01*
X042306Y015791D02*
X042383Y015791D01*
X042383Y015673D02*
X042306Y015673D01*
X042306Y015554D02*
X042383Y015554D01*
X042383Y015436D02*
X042306Y015436D01*
X042013Y014994D02*
X042017Y014986D01*
X042009Y014986D01*
X042013Y014990D01*
X042013Y014994D01*
X041596Y015239D02*
X041380Y015022D01*
X041380Y012857D01*
X042561Y011676D01*
X042561Y010495D01*
X042265Y010199D01*
X041987Y010199D01*
X041987Y009884D02*
X043427Y009884D01*
X043446Y009904D01*
X043500Y009866D02*
X042397Y009866D01*
X042397Y009884D02*
X042343Y009884D01*
X042343Y009884D01*
X042343Y009884D01*
X042397Y009884D01*
X042397Y009831D01*
X042457Y009771D01*
X042457Y009611D01*
X042697Y009611D01*
X042697Y009255D01*
X042817Y009255D01*
X042817Y009611D01*
X043074Y009611D01*
X043115Y009600D01*
X043151Y009579D01*
X043181Y009550D01*
X043202Y009513D01*
X043213Y009472D01*
X043213Y009255D01*
X042817Y009255D01*
X042817Y009135D01*
X043213Y009135D01*
X043213Y008918D01*
X043213Y009037D02*
X043500Y009037D01*
X043500Y009155D02*
X042817Y009155D01*
X042757Y009195D02*
X042797Y009254D01*
X042817Y009274D02*
X042697Y009274D01*
X042757Y009195D02*
X042876Y009215D01*
X042876Y009235D01*
X042856Y009254D01*
X043407Y009254D01*
X043446Y009215D01*
X043500Y009274D02*
X043213Y009274D01*
X043213Y009392D02*
X043500Y009392D01*
X043500Y009511D02*
X043203Y009511D01*
X043500Y009629D02*
X042457Y009629D01*
X042457Y009748D02*
X043500Y009748D01*
X043500Y009985D02*
X042447Y009985D01*
X042424Y009962D02*
X042719Y010257D01*
X042798Y010336D01*
X042841Y010439D01*
X042841Y010790D01*
X042849Y010781D01*
X042981Y010726D01*
X043124Y010726D01*
X043256Y010781D01*
X043357Y010882D01*
X043412Y011014D01*
X043412Y011157D01*
X043393Y011203D01*
X043393Y012826D01*
X043341Y012951D01*
X043174Y013118D01*
X043174Y013637D01*
X043045Y013766D01*
X041682Y013766D01*
X041660Y013743D01*
X041660Y014018D01*
X041682Y013995D01*
X042258Y013995D01*
X042387Y014124D01*
X042387Y014151D01*
X042490Y014151D01*
X042615Y014202D01*
X042931Y014518D01*
X042931Y014124D01*
X043060Y013995D01*
X043107Y013995D01*
X043155Y013947D01*
X043500Y013602D01*
X043500Y003427D01*
X043481Y003381D01*
X043484Y003230D02*
X034259Y003230D01*
X034194Y003506D02*
X035179Y004491D01*
X035179Y009018D01*
X035572Y009412D01*
X037738Y009412D01*
X038210Y008940D01*
X038607Y008940D01*
X038607Y009254D02*
X038289Y009254D01*
X037935Y009609D01*
X037935Y009707D01*
X038607Y009569D02*
X040356Y009569D01*
X040671Y009884D01*
X041987Y009884D01*
X041987Y009569D02*
X041478Y009569D01*
X041478Y009510D01*
X041380Y009609D01*
X040789Y009609D01*
X040435Y009254D01*
X039254Y009254D01*
X039116Y009117D01*
X039140Y009511D02*
X039022Y009511D01*
X039023Y009629D02*
X040413Y009629D01*
X040532Y009748D02*
X039077Y009748D01*
X039077Y009866D02*
X040678Y009866D01*
X040905Y010103D02*
X041066Y010103D01*
X041987Y010514D02*
X042088Y010514D01*
X042265Y010691D01*
X042265Y011577D01*
X039903Y013940D01*
X038919Y013940D01*
X038722Y014136D01*
X038722Y015317D01*
X038624Y015219D01*
X038742Y015239D02*
X038722Y015317D01*
X038742Y015357D02*
X038742Y015239D01*
X039159Y014994D02*
X039163Y014986D01*
X039155Y014986D01*
X039159Y014990D01*
X039159Y014994D01*
X039451Y015436D02*
X039528Y015436D01*
X039528Y015554D02*
X039451Y015554D01*
X039451Y015673D02*
X039528Y015673D01*
X039528Y015791D02*
X039451Y015791D01*
X039267Y015791D02*
X039091Y015791D01*
X038590Y015910D02*
X039644Y015910D01*
X039644Y016028D02*
X038506Y016028D01*
X038387Y016147D02*
X039644Y016147D01*
X039644Y016265D02*
X038269Y016265D01*
X038167Y016384D02*
X039644Y016384D01*
X039636Y016437D02*
X039636Y017029D01*
X039153Y017029D01*
X039153Y016576D01*
X039164Y016535D01*
X039185Y016499D01*
X039214Y016469D01*
X039251Y016448D01*
X039292Y016437D01*
X039636Y016437D01*
X039636Y016502D02*
X039655Y016502D01*
X039636Y016621D02*
X039756Y016621D01*
X039756Y016739D02*
X039636Y016739D01*
X039636Y016858D02*
X039756Y016858D01*
X039756Y016976D02*
X039636Y016976D01*
X039636Y017029D02*
X039756Y017029D01*
X039756Y017149D01*
X039636Y017149D01*
X039636Y017029D01*
X039636Y017095D02*
X001320Y017095D01*
X001320Y017213D02*
X017829Y017213D01*
X017860Y017201D02*
X018246Y017201D01*
X018603Y017348D01*
X018876Y017622D01*
X019024Y017979D01*
X019024Y018365D01*
X018876Y018722D01*
X018603Y018995D01*
X018246Y019143D01*
X017860Y019143D01*
X017503Y018995D01*
X017229Y018722D01*
X017082Y018365D01*
X017082Y017979D01*
X017229Y017622D01*
X017503Y017348D01*
X017860Y017201D01*
X017543Y017332D02*
X001320Y017332D01*
X001320Y017450D02*
X017401Y017450D01*
X017282Y017569D02*
X001320Y017569D01*
X001320Y017687D02*
X017202Y017687D01*
X017153Y017806D02*
X001320Y017806D01*
X001320Y017924D02*
X017104Y017924D01*
X017082Y018043D02*
X001320Y018043D01*
X001320Y018161D02*
X017082Y018161D01*
X017082Y018280D02*
X001320Y018280D01*
X001320Y018398D02*
X017095Y018398D01*
X017144Y018517D02*
X001320Y018517D01*
X001320Y018635D02*
X017193Y018635D01*
X017261Y018754D02*
X001320Y018754D01*
X001320Y018872D02*
X017380Y018872D01*
X017498Y018991D02*
X001320Y018991D01*
X001320Y019109D02*
X017778Y019109D01*
X018328Y019109D02*
X028014Y019109D01*
X028096Y019143D02*
X027739Y018995D01*
X027466Y018722D01*
X027318Y018365D01*
X027318Y017979D01*
X027466Y017622D01*
X027739Y017348D01*
X028096Y017201D01*
X028482Y017201D01*
X028839Y017348D01*
X029112Y017622D01*
X029260Y017979D01*
X029260Y018365D01*
X029112Y018722D01*
X028839Y018995D01*
X028482Y019143D01*
X028096Y019143D01*
X027734Y018991D02*
X023575Y018991D01*
X023464Y019036D01*
X023349Y019067D01*
X023231Y019083D01*
X023231Y018232D01*
X023111Y018232D01*
X023111Y019083D01*
X022993Y019067D01*
X022877Y019036D01*
X022767Y018991D01*
X022664Y018931D01*
X022569Y018858D01*
X022484Y018774D01*
X022412Y018679D01*
X022352Y018576D01*
X022306Y018465D01*
X022275Y018350D01*
X022260Y018232D01*
X023111Y018232D01*
X023111Y018112D01*
X022260Y018112D01*
X022275Y017994D01*
X022306Y017878D01*
X022352Y017768D01*
X022412Y017664D01*
X022484Y017570D01*
X022569Y017485D01*
X022664Y017413D01*
X022767Y017353D01*
X022877Y017307D01*
X022993Y017276D01*
X023111Y017261D01*
X023111Y018112D01*
X023231Y018112D01*
X023231Y018232D01*
X024082Y018232D01*
X024066Y018350D01*
X024036Y018465D01*
X023990Y018576D01*
X023930Y018679D01*
X023857Y018774D01*
X023773Y018858D01*
X023678Y018931D01*
X023575Y018991D01*
X023755Y018872D02*
X027616Y018872D01*
X027497Y018754D02*
X023873Y018754D01*
X023956Y018635D02*
X027430Y018635D01*
X027381Y018517D02*
X024014Y018517D01*
X024054Y018398D02*
X027332Y018398D01*
X027318Y018280D02*
X024076Y018280D01*
X024082Y018112D02*
X023231Y018112D01*
X023231Y017261D01*
X023349Y017276D01*
X023464Y017307D01*
X023575Y017353D01*
X023678Y017413D01*
X023773Y017485D01*
X023857Y017570D01*
X023930Y017664D01*
X023990Y017768D01*
X024036Y017878D01*
X024066Y017994D01*
X024082Y018112D01*
X024073Y018043D02*
X027318Y018043D01*
X027318Y018161D02*
X023231Y018161D01*
X023231Y018043D02*
X023111Y018043D01*
X023111Y018161D02*
X019024Y018161D01*
X019024Y018043D02*
X022269Y018043D01*
X022294Y017924D02*
X019001Y017924D01*
X018952Y017806D02*
X022336Y017806D01*
X022399Y017687D02*
X018903Y017687D01*
X018823Y017569D02*
X022485Y017569D01*
X022615Y017450D02*
X018705Y017450D01*
X018562Y017332D02*
X022818Y017332D01*
X023111Y017332D02*
X023231Y017332D01*
X023231Y017450D02*
X023111Y017450D01*
X023111Y017569D02*
X023231Y017569D01*
X023231Y017687D02*
X023111Y017687D01*
X023111Y017806D02*
X023231Y017806D01*
X023231Y017924D02*
X023111Y017924D01*
X023111Y018280D02*
X023231Y018280D01*
X023231Y018398D02*
X023111Y018398D01*
X023111Y018517D02*
X023231Y018517D01*
X023231Y018635D02*
X023111Y018635D01*
X023111Y018754D02*
X023231Y018754D01*
X023231Y018872D02*
X023111Y018872D01*
X023111Y018991D02*
X023231Y018991D01*
X022767Y018991D02*
X018607Y018991D01*
X018726Y018872D02*
X022587Y018872D01*
X022469Y018754D02*
X018844Y018754D01*
X018912Y018635D02*
X022386Y018635D01*
X022327Y018517D02*
X018961Y018517D01*
X019010Y018398D02*
X022288Y018398D01*
X022266Y018280D02*
X019024Y018280D01*
X018276Y017213D02*
X028066Y017213D01*
X027780Y017332D02*
X023524Y017332D01*
X023727Y017450D02*
X027637Y017450D01*
X027519Y017569D02*
X023856Y017569D01*
X023943Y017687D02*
X027439Y017687D01*
X027389Y017806D02*
X024005Y017806D01*
X024048Y017924D02*
X027340Y017924D01*
X028512Y017213D02*
X039153Y017213D01*
X039153Y017149D02*
X039636Y017149D01*
X039636Y017741D01*
X039292Y017741D01*
X039251Y017730D01*
X039214Y017709D01*
X039185Y017680D01*
X039164Y017643D01*
X039153Y017602D01*
X039153Y017149D01*
X039153Y016976D02*
X001320Y016976D01*
X001320Y016858D02*
X036438Y016858D01*
X036457Y016876D02*
X036187Y016606D01*
X036187Y016456D01*
X036607Y016456D01*
X036607Y016376D01*
X036187Y016376D01*
X036187Y016225D01*
X036457Y015956D01*
X036607Y015956D01*
X036607Y016376D01*
X036687Y016376D01*
X036687Y015956D01*
X036838Y015956D01*
X037107Y016225D01*
X037107Y016376D01*
X036687Y016376D01*
X036687Y016456D01*
X036607Y016456D01*
X036607Y016876D01*
X036457Y016876D01*
X036607Y016858D02*
X036687Y016858D01*
X036687Y016876D02*
X036687Y016456D01*
X037107Y016456D01*
X037107Y016606D01*
X036838Y016876D01*
X036687Y016876D01*
X036687Y016739D02*
X036607Y016739D01*
X036607Y016621D02*
X036687Y016621D01*
X036687Y016502D02*
X036607Y016502D01*
X036607Y016384D02*
X001320Y016384D01*
X001320Y016502D02*
X036187Y016502D01*
X036201Y016621D02*
X001320Y016621D01*
X001320Y016739D02*
X036320Y016739D01*
X036687Y016384D02*
X037127Y016384D01*
X037127Y016502D02*
X037107Y016502D01*
X037093Y016621D02*
X037127Y016621D01*
X037235Y016739D02*
X036975Y016739D01*
X036856Y016858D02*
X037354Y016858D01*
X037647Y016416D02*
X037722Y016416D01*
X038328Y015810D01*
X038328Y014924D01*
X038427Y014825D01*
X038427Y014038D01*
X038820Y013644D01*
X039805Y013644D01*
X040494Y012955D01*
X040494Y012660D01*
X040494Y011141D01*
X040454Y011102D01*
X040769Y011102D02*
X040789Y011082D01*
X040774Y011572D02*
X040774Y012432D01*
X040798Y012457D01*
X040853Y012589D01*
X040853Y012594D01*
X041985Y011461D01*
X041985Y010844D01*
X041729Y010844D01*
X041729Y011443D01*
X041600Y011572D01*
X040774Y011572D01*
X040774Y011644D02*
X041803Y011644D01*
X041685Y011762D02*
X040774Y011762D01*
X040774Y011881D02*
X041566Y011881D01*
X041448Y011999D02*
X040774Y011999D01*
X040774Y012118D02*
X041329Y012118D01*
X041211Y012236D02*
X040774Y012236D01*
X040774Y012355D02*
X041092Y012355D01*
X040974Y012473D02*
X040805Y012473D01*
X040853Y012592D02*
X040855Y012592D01*
X041100Y013139D02*
X040560Y013679D01*
X040565Y013679D01*
X040697Y013734D01*
X040798Y013835D01*
X040853Y013967D01*
X040853Y014066D01*
X040911Y014124D01*
X040911Y014857D01*
X040907Y014861D01*
X041100Y014861D01*
X041100Y013139D01*
X041100Y013184D02*
X041055Y013184D01*
X041100Y013303D02*
X040936Y013303D01*
X040818Y013421D02*
X041100Y013421D01*
X041100Y013540D02*
X040699Y013540D01*
X040581Y013658D02*
X041100Y013658D01*
X041100Y013777D02*
X040740Y013777D01*
X040823Y013895D02*
X041100Y013895D01*
X041100Y014014D02*
X040853Y014014D01*
X040911Y014132D02*
X041100Y014132D01*
X041100Y014251D02*
X040911Y014251D01*
X040911Y014369D02*
X041100Y014369D01*
X041100Y014488D02*
X040911Y014488D01*
X040911Y014606D02*
X041100Y014606D01*
X041100Y014725D02*
X040911Y014725D01*
X040911Y014843D02*
X041100Y014843D01*
X041596Y015239D02*
X041596Y015357D01*
X042901Y014488D02*
X042931Y014488D01*
X042931Y014369D02*
X042782Y014369D01*
X042664Y014251D02*
X042931Y014251D01*
X042931Y014132D02*
X042387Y014132D01*
X042277Y014014D02*
X043042Y014014D01*
X043207Y013895D02*
X041660Y013895D01*
X041660Y013777D02*
X043325Y013777D01*
X043444Y013658D02*
X043153Y013658D01*
X043174Y013540D02*
X043500Y013540D01*
X043500Y013421D02*
X043174Y013421D01*
X043174Y013303D02*
X043500Y013303D01*
X043500Y013184D02*
X043174Y013184D01*
X043226Y013066D02*
X043500Y013066D01*
X043500Y012947D02*
X043343Y012947D01*
X043392Y012829D02*
X043500Y012829D01*
X043500Y012710D02*
X043393Y012710D01*
X043393Y012592D02*
X043500Y012592D01*
X043500Y012473D02*
X043393Y012473D01*
X043393Y012355D02*
X043500Y012355D01*
X043500Y012236D02*
X043393Y012236D01*
X043393Y012118D02*
X043500Y012118D01*
X043500Y011999D02*
X043393Y011999D01*
X043393Y011881D02*
X043500Y011881D01*
X043500Y011762D02*
X043393Y011762D01*
X043393Y011644D02*
X043500Y011644D01*
X043500Y011525D02*
X043393Y011525D01*
X043393Y011407D02*
X043500Y011407D01*
X043500Y011288D02*
X043393Y011288D01*
X043406Y011170D02*
X043500Y011170D01*
X043500Y011051D02*
X043412Y011051D01*
X043378Y010933D02*
X043500Y010933D01*
X043500Y010814D02*
X043289Y010814D01*
X043500Y010696D02*
X042841Y010696D01*
X042841Y010577D02*
X043500Y010577D01*
X043500Y010459D02*
X042841Y010459D01*
X042800Y010340D02*
X043500Y010340D01*
X043500Y010222D02*
X042684Y010222D01*
X042565Y010103D02*
X043500Y010103D01*
X042424Y009962D02*
X042418Y009960D01*
X042397Y009938D01*
X042397Y009884D01*
X042697Y009511D02*
X042817Y009511D01*
X042817Y009392D02*
X042697Y009392D01*
X042856Y009254D02*
X041987Y009254D01*
X041987Y008940D02*
X041557Y008940D01*
X041478Y009018D01*
X041478Y009510D01*
X041198Y009283D02*
X041198Y008963D01*
X041241Y008860D01*
X041319Y008781D01*
X041398Y008702D01*
X041501Y008660D01*
X041517Y008660D01*
X041517Y008209D01*
X041510Y008192D01*
X039768Y008192D01*
X039842Y008266D01*
X039975Y008266D01*
X040107Y008320D01*
X040208Y008421D01*
X040262Y008553D01*
X040262Y008561D01*
X040368Y008561D01*
X040500Y008615D01*
X040601Y008716D01*
X040656Y008848D01*
X040656Y008991D01*
X040630Y009054D01*
X040672Y009096D01*
X040905Y009329D01*
X041165Y009329D01*
X041174Y009307D01*
X041198Y009283D01*
X041198Y009274D02*
X040850Y009274D01*
X040731Y009155D02*
X041198Y009155D01*
X041198Y009037D02*
X040637Y009037D01*
X040656Y008918D02*
X041216Y008918D01*
X041301Y008800D02*
X040636Y008800D01*
X040566Y008681D02*
X041449Y008681D01*
X041517Y008563D02*
X040373Y008563D01*
X040217Y008444D02*
X041517Y008444D01*
X041517Y008326D02*
X040112Y008326D01*
X039783Y008207D02*
X041516Y008207D01*
X041773Y008096D02*
X041987Y008310D01*
X041950Y008310D01*
X041773Y008096D02*
X041773Y007247D01*
X042206Y006814D01*
X042246Y006814D01*
X042246Y006125D01*
X042187Y006066D01*
X042344Y006125D01*
X042875Y006193D02*
X042995Y006193D01*
X042995Y006311D02*
X042875Y006311D01*
X042875Y006430D02*
X042934Y006430D01*
X042934Y006548D02*
X042817Y006548D01*
X042817Y006667D02*
X042934Y006667D01*
X042876Y006814D02*
X042757Y006932D01*
X042757Y007050D01*
X042246Y007562D01*
X042246Y007680D01*
X042304Y007622D02*
X042304Y007309D01*
X042188Y007309D01*
X042188Y007622D01*
X042304Y007622D01*
X042304Y007615D02*
X042188Y007615D01*
X042188Y007496D02*
X042304Y007496D01*
X042304Y007378D02*
X042188Y007378D01*
X042876Y007680D02*
X042876Y008428D01*
X042757Y008447D01*
X042679Y008625D01*
X041987Y008625D01*
X042757Y008447D02*
X042836Y008428D01*
X041493Y007252D02*
X041493Y007207D01*
X041373Y007157D01*
X041272Y007056D01*
X041217Y006924D01*
X041217Y006890D01*
X040870Y006542D01*
X038981Y006542D01*
X038981Y007239D01*
X038958Y007263D01*
X038970Y007275D01*
X038993Y007252D01*
X039159Y007252D01*
X039205Y007142D01*
X039306Y007041D01*
X039438Y006986D01*
X039581Y006986D01*
X039713Y007041D01*
X039814Y007142D01*
X039860Y007252D01*
X041493Y007252D01*
X041356Y007141D02*
X039813Y007141D01*
X039668Y007022D02*
X041258Y007022D01*
X041217Y006904D02*
X038981Y006904D01*
X038981Y007022D02*
X039351Y007022D01*
X039206Y007141D02*
X038981Y007141D01*
X038986Y007259D02*
X038962Y007259D01*
X039509Y007345D02*
X039509Y007722D01*
X039194Y007722D02*
X039194Y008014D01*
X039805Y008625D01*
X039903Y008625D01*
X039805Y009018D02*
X040198Y009018D01*
X040297Y008920D01*
X039805Y009018D02*
X039096Y008310D01*
X038607Y008310D01*
X038607Y008625D02*
X038328Y008625D01*
X038131Y008428D01*
X038131Y008132D01*
X038531Y007732D01*
X038531Y007640D01*
X038506Y007614D01*
X038506Y006853D01*
X038981Y006785D02*
X041113Y006785D01*
X040994Y006667D02*
X038981Y006667D01*
X038981Y006548D02*
X040876Y006548D01*
X040986Y006262D02*
X041576Y006853D01*
X041779Y006548D02*
X041789Y006548D01*
X041711Y006430D02*
X041549Y006430D01*
X041431Y006311D02*
X041711Y006311D01*
X041711Y006193D02*
X041312Y006193D01*
X041194Y006074D02*
X041711Y006074D01*
X041711Y005956D02*
X037137Y005956D01*
X037147Y006074D02*
X037235Y006074D01*
X037088Y005837D02*
X041711Y005837D01*
X041711Y005719D02*
X037013Y005719D01*
X036219Y005600D02*
X035459Y005600D01*
X035459Y005482D02*
X036107Y005482D01*
X036028Y005363D02*
X035459Y005363D01*
X035459Y005245D02*
X035979Y005245D01*
X035967Y005126D02*
X035459Y005126D01*
X035459Y005008D02*
X035967Y005008D01*
X036004Y004889D02*
X035459Y004889D01*
X035459Y004771D02*
X036053Y004771D01*
X036167Y004652D02*
X035459Y004652D01*
X035459Y004534D02*
X036159Y004534D01*
X036050Y004415D02*
X035450Y004415D01*
X035381Y004297D02*
X036001Y004297D01*
X035967Y004178D02*
X035262Y004178D01*
X035144Y004060D02*
X035967Y004060D01*
X035983Y003941D02*
X035025Y003941D01*
X034907Y003823D02*
X036032Y003823D01*
X036115Y003704D02*
X034788Y003704D01*
X034670Y003586D02*
X036250Y003586D01*
X038889Y002638D02*
X031288Y002638D01*
X031687Y002993D02*
X043666Y002993D01*
X043534Y003112D02*
X031736Y003112D01*
X031668Y004060D02*
X033098Y004060D01*
X032838Y004178D02*
X031550Y004178D01*
X031431Y004297D02*
X032720Y004297D01*
X032601Y004415D02*
X031192Y004415D01*
X030504Y004415D02*
X029095Y004415D01*
X029112Y004433D02*
X029260Y004790D01*
X029260Y005176D01*
X029112Y005533D01*
X028839Y005806D01*
X028482Y005954D01*
X028096Y005954D01*
X027739Y005806D01*
X027466Y005533D01*
X027318Y005176D01*
X027318Y004790D01*
X027466Y004433D01*
X027739Y004160D01*
X028096Y004012D01*
X028482Y004012D01*
X028839Y004160D01*
X029112Y004433D01*
X029154Y004534D02*
X032542Y004534D01*
X032493Y004652D02*
X029203Y004652D01*
X029252Y004771D02*
X032444Y004771D01*
X032436Y004889D02*
X029260Y004889D01*
X029260Y005008D02*
X032436Y005008D01*
X032436Y005126D02*
X029260Y005126D01*
X029232Y005245D02*
X032464Y005245D01*
X032513Y005363D02*
X029183Y005363D01*
X029134Y005482D02*
X032562Y005482D01*
X032651Y005600D02*
X029045Y005600D01*
X028927Y005719D02*
X032769Y005719D01*
X032932Y005837D02*
X028764Y005837D01*
X027814Y005837D02*
X025223Y005837D01*
X025223Y005719D02*
X027651Y005719D01*
X027533Y005600D02*
X025223Y005600D01*
X025223Y005482D02*
X027444Y005482D01*
X027395Y005363D02*
X025223Y005363D01*
X025223Y005245D02*
X027346Y005245D01*
X027318Y005126D02*
X025223Y005126D01*
X025223Y005008D02*
X027318Y005008D01*
X027318Y004889D02*
X025223Y004889D01*
X025223Y004771D02*
X027326Y004771D01*
X027375Y004652D02*
X025223Y004652D01*
X025223Y004534D02*
X027424Y004534D01*
X027483Y004415D02*
X025214Y004415D01*
X025144Y004297D02*
X027602Y004297D01*
X027720Y004178D02*
X025026Y004178D01*
X024907Y004060D02*
X027980Y004060D01*
X028598Y004060D02*
X030028Y004060D01*
X029977Y003941D02*
X024789Y003941D01*
X024670Y003823D02*
X029928Y003823D01*
X029879Y003704D02*
X024552Y003704D01*
X024433Y003586D02*
X029877Y003586D01*
X029877Y003467D02*
X024315Y003467D01*
X024196Y003349D02*
X029877Y003349D01*
X029911Y003230D02*
X024023Y003230D01*
X023878Y003823D02*
X021532Y003823D01*
X021483Y003941D02*
X023997Y003941D01*
X024115Y004060D02*
X023480Y004060D01*
X023740Y004178D02*
X024234Y004178D01*
X024352Y004297D02*
X023858Y004297D01*
X023977Y004415D02*
X024471Y004415D01*
X024589Y004534D02*
X024036Y004534D01*
X024085Y004652D02*
X024663Y004652D01*
X024663Y004771D02*
X024134Y004771D01*
X024142Y004889D02*
X024663Y004889D01*
X024663Y005008D02*
X024142Y005008D01*
X024142Y005126D02*
X024663Y005126D01*
X024663Y005245D02*
X024114Y005245D01*
X024065Y005363D02*
X024663Y005363D01*
X024663Y005482D02*
X024015Y005482D01*
X023927Y005600D02*
X024663Y005600D01*
X024663Y005719D02*
X023809Y005719D01*
X023646Y005837D02*
X024663Y005837D01*
X022365Y004415D02*
X020956Y004415D01*
X021195Y004297D02*
X022484Y004297D01*
X022602Y004178D02*
X021314Y004178D01*
X021432Y004060D02*
X022862Y004060D01*
X023789Y001690D02*
X039253Y001690D01*
X039253Y001808D02*
X039373Y001808D01*
X039373Y001927D02*
X039253Y001927D01*
X039253Y002045D02*
X039373Y002045D01*
X039373Y002164D02*
X039253Y002164D01*
X039253Y002282D02*
X039373Y002282D01*
X039373Y002401D02*
X039253Y002401D01*
X039253Y002519D02*
X039373Y002519D01*
X039373Y002638D02*
X039253Y002638D01*
X036101Y005719D02*
X035459Y005719D01*
X035459Y005837D02*
X036026Y005837D01*
X035977Y005956D02*
X035459Y005956D01*
X035459Y006074D02*
X035967Y006074D01*
X035967Y006193D02*
X035459Y006193D01*
X035459Y006311D02*
X036007Y006311D01*
X036056Y006430D02*
X035459Y006430D01*
X035459Y006548D02*
X036173Y006548D01*
X036153Y006667D02*
X035459Y006667D01*
X035459Y006785D02*
X036047Y006785D01*
X035998Y006904D02*
X035459Y006904D01*
X035459Y007022D02*
X035967Y007022D01*
X035967Y007141D02*
X035459Y007141D01*
X035459Y007259D02*
X035985Y007259D01*
X036034Y007378D02*
X035459Y007378D01*
X035459Y007496D02*
X036121Y007496D01*
X036265Y007615D02*
X035459Y007615D01*
X035459Y007733D02*
X036171Y007733D01*
X036087Y007852D02*
X035459Y007852D01*
X035459Y007970D02*
X036041Y007970D01*
X036038Y008207D02*
X035459Y008207D01*
X035459Y008089D02*
X036517Y008089D01*
X036557Y008097D02*
X037246Y007408D01*
X037246Y007148D01*
X037541Y006853D01*
X037757Y006853D01*
X037697Y006904D02*
X037197Y006904D01*
X037147Y007022D02*
X037342Y007022D01*
X037342Y007141D02*
X037147Y007141D01*
X037128Y007259D02*
X037309Y007259D01*
X037275Y007378D02*
X037079Y007378D01*
X036992Y007496D02*
X037275Y007496D01*
X037275Y007615D02*
X036849Y007615D01*
X036942Y007733D02*
X037275Y007733D01*
X037275Y007852D02*
X037026Y007852D01*
X037073Y007970D02*
X037275Y007970D01*
X037377Y008089D02*
X036597Y008089D01*
X036597Y008207D02*
X036517Y008207D01*
X036517Y008326D02*
X036597Y008326D01*
X036597Y008444D02*
X036517Y008444D01*
X036517Y008563D02*
X036597Y008563D01*
X036810Y008563D02*
X037451Y008563D01*
X037451Y008681D02*
X035894Y008681D01*
X036058Y008800D02*
X037399Y008800D01*
X037541Y009117D02*
X037731Y008926D01*
X037738Y008920D01*
X037731Y008926D02*
X037731Y007640D01*
X037451Y008207D02*
X037076Y008207D01*
X037035Y008326D02*
X037451Y008326D01*
X037451Y008444D02*
X036959Y008444D01*
X036303Y008563D02*
X035459Y008563D01*
X035459Y008681D02*
X035645Y008681D01*
X035480Y008800D02*
X035459Y008800D01*
X035769Y009018D02*
X035868Y009117D01*
X037541Y009117D01*
X036154Y008444D02*
X035459Y008444D01*
X035459Y008326D02*
X036078Y008326D01*
X034899Y008326D02*
X034232Y008326D01*
X034278Y008207D02*
X034899Y008207D01*
X034899Y008089D02*
X034306Y008089D01*
X034165Y008444D02*
X034899Y008444D01*
X034899Y008563D02*
X034069Y008563D01*
X033932Y008681D02*
X034899Y008681D01*
X033112Y008800D02*
X028741Y008800D01*
X028917Y008681D02*
X032882Y008681D01*
X032746Y008563D02*
X029035Y008563D01*
X029130Y008444D02*
X032649Y008444D01*
X032582Y008326D02*
X029179Y008326D01*
X029228Y008207D02*
X032537Y008207D01*
X032508Y008089D02*
X029260Y008089D01*
X027837Y008800D02*
X025907Y008800D01*
X025789Y008681D02*
X027661Y008681D01*
X027543Y008563D02*
X025670Y008563D01*
X025552Y008444D02*
X027448Y008444D01*
X027399Y008326D02*
X025433Y008326D01*
X025315Y008207D02*
X027350Y008207D01*
X027318Y008089D02*
X025223Y008089D01*
X025223Y007970D02*
X027318Y007970D01*
X027318Y007852D02*
X025223Y007852D01*
X025223Y007733D02*
X027322Y007733D01*
X027371Y007615D02*
X025223Y007615D01*
X025223Y007496D02*
X027420Y007496D01*
X027473Y007378D02*
X025223Y007378D01*
X025223Y007259D02*
X027592Y007259D01*
X027710Y007141D02*
X025223Y007141D01*
X024663Y008089D02*
X024070Y008089D01*
X024041Y008207D02*
X024663Y008207D01*
X024679Y008326D02*
X023996Y008326D01*
X023929Y008444D02*
X024760Y008444D01*
X024784Y008468D02*
X024784Y008468D01*
X024878Y008563D02*
X023832Y008563D01*
X023696Y008681D02*
X024997Y008681D01*
X022071Y010807D02*
X038050Y010807D01*
X038345Y011102D01*
X039194Y011102D01*
X039509Y011102D02*
X039509Y011479D01*
X039214Y011774D01*
X038525Y011774D01*
X037935Y011184D01*
X032521Y011184D01*
X030848Y012857D01*
X030848Y013743D01*
X029958Y014132D02*
X021502Y014132D01*
X021551Y014014D02*
X029909Y014014D01*
X029877Y013895D02*
X021583Y013895D01*
X021583Y013777D02*
X029877Y013777D01*
X029877Y013658D02*
X021583Y013658D01*
X021579Y013540D02*
X029881Y013540D01*
X029930Y013421D02*
X026198Y013421D01*
X026173Y013435D02*
X025881Y013514D01*
X025579Y013514D01*
X025286Y013435D01*
X025024Y013284D01*
X024811Y013070D01*
X024659Y012808D01*
X024581Y012516D01*
X024581Y012213D01*
X024659Y011921D01*
X024811Y011659D01*
X025024Y011445D01*
X025286Y011294D01*
X025579Y011216D01*
X025881Y011216D01*
X026173Y011294D01*
X026435Y011445D01*
X026649Y011659D01*
X026801Y011921D01*
X026879Y012213D01*
X026879Y012516D01*
X026801Y012808D01*
X026649Y013070D01*
X026435Y013284D01*
X026173Y013435D01*
X026403Y013303D02*
X029979Y013303D01*
X030033Y013184D02*
X026535Y013184D01*
X026652Y013066D02*
X030152Y013066D01*
X030270Y012947D02*
X026720Y012947D01*
X026789Y012829D02*
X030517Y012829D01*
X030606Y012710D02*
X026827Y012710D01*
X026859Y012592D02*
X030717Y012592D01*
X030836Y012473D02*
X026879Y012473D01*
X026879Y012355D02*
X030954Y012355D01*
X031073Y012236D02*
X026879Y012236D01*
X026853Y012118D02*
X031191Y012118D01*
X031310Y011999D02*
X026821Y011999D01*
X026777Y011881D02*
X031428Y011881D01*
X031547Y011762D02*
X026709Y011762D01*
X026634Y011644D02*
X031665Y011644D01*
X031784Y011525D02*
X026515Y011525D01*
X026368Y011407D02*
X031902Y011407D01*
X032021Y011288D02*
X026151Y011288D01*
X025309Y011288D02*
X021986Y011288D01*
X022104Y011170D02*
X032139Y011170D01*
X032576Y011525D02*
X035410Y011525D01*
X035410Y011644D02*
X032457Y011644D01*
X032339Y011762D02*
X035457Y011762D01*
X035489Y011881D02*
X032220Y011881D01*
X032102Y011999D02*
X035489Y011999D01*
X035489Y012118D02*
X031983Y012118D01*
X031865Y012236D02*
X035489Y012236D01*
X035489Y012355D02*
X031746Y012355D01*
X031628Y012473D02*
X035489Y012473D01*
X035489Y012592D02*
X031509Y012592D01*
X031391Y012710D02*
X035489Y012710D01*
X035489Y012829D02*
X031272Y012829D01*
X031426Y012947D02*
X035489Y012947D01*
X035489Y013066D02*
X031544Y013066D01*
X031663Y013184D02*
X035489Y013184D01*
X035489Y013303D02*
X031717Y013303D01*
X031766Y013421D02*
X035489Y013421D01*
X035489Y013540D02*
X031815Y013540D01*
X031819Y013658D02*
X035513Y013658D01*
X035604Y013777D02*
X031819Y013777D01*
X031819Y013895D02*
X035723Y013895D01*
X035841Y014014D02*
X031787Y014014D01*
X031738Y014132D02*
X035960Y014132D01*
X036078Y014251D02*
X033607Y014251D01*
X033600Y014248D02*
X033957Y014396D01*
X034230Y014669D01*
X034378Y015026D01*
X034378Y015412D01*
X034230Y015769D01*
X033957Y016042D01*
X033600Y016190D01*
X033214Y016190D01*
X032857Y016042D01*
X032584Y015769D01*
X032436Y015412D01*
X032436Y015026D01*
X032584Y014669D01*
X032857Y014396D01*
X033214Y014248D01*
X033600Y014248D01*
X033893Y014369D02*
X036127Y014369D01*
X036127Y014488D02*
X034049Y014488D01*
X034168Y014606D02*
X036127Y014606D01*
X036221Y014725D02*
X034253Y014725D01*
X034303Y014843D02*
X036339Y014843D01*
X036366Y014962D02*
X034352Y014962D01*
X034378Y015080D02*
X036248Y015080D01*
X036129Y015199D02*
X034378Y015199D01*
X034378Y015317D02*
X036127Y015317D01*
X036127Y015436D02*
X034369Y015436D01*
X034319Y015554D02*
X036127Y015554D01*
X036169Y015673D02*
X034270Y015673D01*
X034208Y015791D02*
X036287Y015791D01*
X036406Y015910D02*
X034090Y015910D01*
X033971Y016028D02*
X036384Y016028D01*
X036266Y016147D02*
X033706Y016147D01*
X033109Y016147D02*
X028587Y016147D01*
X028482Y016190D02*
X028096Y016190D01*
X027739Y016042D01*
X027466Y015769D01*
X027318Y015412D01*
X027318Y015026D01*
X027466Y014669D01*
X027739Y014396D01*
X028096Y014248D01*
X028482Y014248D01*
X028839Y014396D01*
X029112Y014669D01*
X029260Y015026D01*
X029260Y015412D01*
X029112Y015769D01*
X028839Y016042D01*
X028482Y016190D01*
X028853Y016028D02*
X032843Y016028D01*
X032724Y015910D02*
X028972Y015910D01*
X029090Y015791D02*
X032606Y015791D01*
X032544Y015673D02*
X029152Y015673D01*
X029201Y015554D02*
X032495Y015554D01*
X032446Y015436D02*
X029250Y015436D01*
X029260Y015317D02*
X032436Y015317D01*
X032436Y015199D02*
X029260Y015199D01*
X029260Y015080D02*
X032436Y015080D01*
X032463Y014962D02*
X029234Y014962D01*
X029184Y014843D02*
X032512Y014843D01*
X032561Y014725D02*
X029135Y014725D01*
X029050Y014606D02*
X030395Y014606D01*
X030220Y014488D02*
X028931Y014488D01*
X028775Y014369D02*
X030101Y014369D01*
X030007Y014251D02*
X028489Y014251D01*
X028089Y014251D02*
X023371Y014251D01*
X023364Y014248D02*
X023721Y014396D01*
X023994Y014669D01*
X024142Y015026D01*
X024142Y015412D01*
X023994Y015769D01*
X023721Y016042D01*
X023364Y016190D01*
X022978Y016190D01*
X022621Y016042D01*
X022348Y015769D01*
X022200Y015412D01*
X022200Y015026D01*
X022348Y014669D01*
X022621Y014396D01*
X022978Y014248D01*
X023364Y014248D01*
X023657Y014369D02*
X027803Y014369D01*
X027647Y014488D02*
X023813Y014488D01*
X023931Y014606D02*
X027528Y014606D01*
X027443Y014725D02*
X024017Y014725D01*
X024066Y014843D02*
X027393Y014843D01*
X027344Y014962D02*
X024115Y014962D01*
X024142Y015080D02*
X027318Y015080D01*
X027318Y015199D02*
X024142Y015199D01*
X024142Y015317D02*
X027318Y015317D01*
X027327Y015436D02*
X024132Y015436D01*
X024083Y015554D02*
X027377Y015554D01*
X027426Y015673D02*
X024034Y015673D01*
X023972Y015791D02*
X027488Y015791D01*
X027606Y015910D02*
X023854Y015910D01*
X023735Y016028D02*
X027725Y016028D01*
X027991Y016147D02*
X023469Y016147D01*
X022872Y016147D02*
X018351Y016147D01*
X018246Y016190D02*
X017860Y016190D01*
X017503Y016042D01*
X017229Y015769D01*
X017082Y015412D01*
X017082Y015026D01*
X017229Y014669D01*
X017503Y014396D01*
X017860Y014248D01*
X018246Y014248D01*
X018603Y014396D01*
X018876Y014669D01*
X019024Y015026D01*
X019024Y015412D01*
X018876Y015769D01*
X018603Y016042D01*
X018246Y016190D01*
X018617Y016028D02*
X022606Y016028D01*
X022488Y015910D02*
X018736Y015910D01*
X018854Y015791D02*
X022369Y015791D01*
X022308Y015673D02*
X018916Y015673D01*
X018965Y015554D02*
X022258Y015554D01*
X022209Y015436D02*
X019014Y015436D01*
X019024Y015317D02*
X022200Y015317D01*
X022200Y015199D02*
X019024Y015199D01*
X019024Y015080D02*
X022200Y015080D01*
X022226Y014962D02*
X018997Y014962D01*
X018948Y014843D02*
X022275Y014843D01*
X022324Y014725D02*
X018899Y014725D01*
X018813Y014606D02*
X020159Y014606D01*
X019983Y014488D02*
X018695Y014488D01*
X018539Y014369D02*
X019865Y014369D01*
X019771Y014251D02*
X018253Y014251D01*
X017853Y014251D02*
X001320Y014251D01*
X001320Y014369D02*
X017567Y014369D01*
X017411Y014488D02*
X001320Y014488D01*
X001320Y014606D02*
X017292Y014606D01*
X017206Y014725D02*
X001320Y014725D01*
X001320Y014843D02*
X017157Y014843D01*
X017108Y014962D02*
X001320Y014962D01*
X001320Y015080D02*
X017082Y015080D01*
X017082Y015199D02*
X001320Y015199D01*
X001320Y015317D02*
X017082Y015317D01*
X017091Y015436D02*
X001320Y015436D01*
X001320Y015554D02*
X017140Y015554D01*
X017189Y015673D02*
X001320Y015673D01*
X001320Y015791D02*
X017251Y015791D01*
X017370Y015910D02*
X001320Y015910D01*
X001320Y016028D02*
X017488Y016028D01*
X017754Y016147D02*
X001320Y016147D01*
X001320Y016265D02*
X036187Y016265D01*
X036607Y016265D02*
X036687Y016265D01*
X036687Y016147D02*
X036607Y016147D01*
X036607Y016028D02*
X036687Y016028D01*
X036910Y016028D02*
X037300Y016028D01*
X037406Y015910D02*
X036889Y015910D01*
X037007Y015791D02*
X037287Y015791D01*
X037169Y015673D02*
X037126Y015673D01*
X036655Y015416D02*
X037147Y014924D01*
X037147Y014136D01*
X038525Y012758D01*
X039214Y012758D01*
X039313Y012660D01*
X038999Y012478D02*
X039008Y012457D01*
X039109Y012356D01*
X039241Y012301D01*
X039384Y012301D01*
X039509Y012353D01*
X039635Y012301D01*
X039778Y012301D01*
X039903Y012353D01*
X040029Y012301D01*
X040171Y012301D01*
X040214Y012318D01*
X040214Y011572D01*
X039938Y011572D01*
X039774Y011572D01*
X039747Y011638D01*
X039452Y011933D01*
X039373Y012012D01*
X039270Y012054D01*
X038470Y012054D01*
X038367Y012012D01*
X037819Y011464D01*
X036111Y011464D01*
X036128Y011506D01*
X036128Y011649D01*
X036074Y011781D01*
X036049Y011805D01*
X036049Y013430D01*
X036515Y013896D01*
X036863Y013896D01*
X036927Y013960D01*
X038288Y012600D01*
X038367Y012521D01*
X038470Y012478D01*
X038999Y012478D01*
X039001Y012473D02*
X036049Y012473D01*
X036049Y012355D02*
X039112Y012355D01*
X039385Y011999D02*
X040214Y011999D01*
X040214Y011881D02*
X039504Y011881D01*
X039622Y011762D02*
X040214Y011762D01*
X040214Y011644D02*
X039741Y011644D01*
X040214Y012118D02*
X036049Y012118D01*
X036049Y012236D02*
X040214Y012236D01*
X040100Y012660D02*
X040100Y012955D01*
X039706Y013349D01*
X038722Y013349D01*
X038131Y013940D01*
X038131Y014727D01*
X037647Y015211D01*
X037647Y015416D01*
X036655Y015416D02*
X036647Y015416D01*
X037029Y016147D02*
X037181Y016147D01*
X037127Y016265D02*
X037107Y016265D01*
X037941Y016858D02*
X039153Y016858D01*
X039153Y016739D02*
X038059Y016739D01*
X038167Y016621D02*
X039153Y016621D01*
X039183Y016502D02*
X038167Y016502D01*
X039153Y017332D02*
X033760Y017332D01*
X033811Y017353D02*
X033701Y017307D01*
X033585Y017276D01*
X033467Y017261D01*
X033467Y018112D01*
X033467Y018232D01*
X033347Y018232D01*
X033347Y019083D01*
X033229Y019067D01*
X033114Y019036D01*
X033003Y018991D01*
X032900Y018931D01*
X032805Y018858D01*
X032721Y018774D01*
X032648Y018679D01*
X032588Y018576D01*
X032542Y018465D01*
X032511Y018350D01*
X032496Y018232D01*
X033347Y018232D01*
X033347Y018112D01*
X032496Y018112D01*
X032511Y017994D01*
X032542Y017878D01*
X032588Y017768D01*
X032648Y017664D01*
X032721Y017570D01*
X032805Y017485D01*
X032900Y017413D01*
X033003Y017353D01*
X033114Y017307D01*
X033229Y017276D01*
X033347Y017261D01*
X033347Y018112D01*
X033467Y018112D01*
X034318Y018112D01*
X034303Y017994D01*
X034272Y017878D01*
X034226Y017768D01*
X034166Y017664D01*
X034094Y017570D01*
X034009Y017485D01*
X033914Y017413D01*
X033811Y017353D01*
X033963Y017450D02*
X039153Y017450D01*
X039153Y017569D02*
X034093Y017569D01*
X034179Y017687D02*
X037157Y017687D01*
X037039Y017806D02*
X034242Y017806D01*
X034284Y017924D02*
X036920Y017924D01*
X037364Y017877D02*
X036754Y018487D01*
X036238Y018517D02*
X034251Y018517D01*
X034272Y018465D02*
X034226Y018576D01*
X034166Y018679D01*
X034094Y018774D01*
X034009Y018858D01*
X033914Y018931D01*
X033811Y018991D01*
X033701Y019036D01*
X033585Y019067D01*
X033467Y019083D01*
X033467Y018232D01*
X034318Y018232D01*
X034303Y018350D01*
X034272Y018465D01*
X034290Y018398D02*
X036238Y018398D01*
X036238Y018280D02*
X034312Y018280D01*
X034309Y018043D02*
X036335Y018043D01*
X036238Y018161D02*
X033467Y018161D01*
X033467Y018043D02*
X033347Y018043D01*
X033347Y018161D02*
X029260Y018161D01*
X029260Y018043D02*
X032505Y018043D01*
X032530Y017924D02*
X029238Y017924D01*
X029189Y017806D02*
X032573Y017806D01*
X032635Y017687D02*
X029139Y017687D01*
X029059Y017569D02*
X032722Y017569D01*
X032851Y017450D02*
X028941Y017450D01*
X028798Y017332D02*
X033054Y017332D01*
X033347Y017332D02*
X033467Y017332D01*
X033467Y017450D02*
X033347Y017450D01*
X033347Y017569D02*
X033467Y017569D01*
X033467Y017687D02*
X033347Y017687D01*
X033347Y017806D02*
X033467Y017806D01*
X033467Y017924D02*
X033347Y017924D01*
X033347Y018280D02*
X033467Y018280D01*
X033467Y018398D02*
X033347Y018398D01*
X033347Y018517D02*
X033467Y018517D01*
X033467Y018635D02*
X033347Y018635D01*
X033347Y018754D02*
X033467Y018754D01*
X033467Y018872D02*
X033347Y018872D01*
X033347Y018991D02*
X033467Y018991D01*
X033811Y018991D02*
X036040Y018991D01*
X035912Y019109D02*
X028564Y019109D01*
X028844Y018991D02*
X033003Y018991D01*
X032823Y018872D02*
X028962Y018872D01*
X029081Y018754D02*
X032705Y018754D01*
X032622Y018635D02*
X029148Y018635D01*
X029197Y018517D02*
X032564Y018517D01*
X032524Y018398D02*
X029246Y018398D01*
X029260Y018280D02*
X032502Y018280D01*
X033991Y018872D02*
X036254Y018872D01*
X036238Y018754D02*
X034109Y018754D01*
X034192Y018635D02*
X036238Y018635D01*
X036183Y019235D02*
X035868Y019550D01*
X035868Y022109D01*
X036163Y022404D01*
X036380Y022404D01*
X035790Y022427D02*
X023855Y022427D01*
X023887Y022309D02*
X035672Y022309D01*
X035709Y022346D02*
X035709Y022346D01*
X035598Y022190D02*
X023919Y022190D01*
X023926Y022072D02*
X035588Y022072D01*
X035588Y021953D02*
X023926Y021953D01*
X023920Y021835D02*
X035588Y021835D01*
X035588Y021716D02*
X023888Y021716D01*
X023856Y021598D02*
X035588Y021598D01*
X035588Y021479D02*
X023797Y021479D01*
X023729Y021361D02*
X035588Y021361D01*
X035588Y021242D02*
X023634Y021242D01*
X023515Y021124D02*
X035588Y021124D01*
X035588Y021005D02*
X023334Y021005D01*
X023023Y020887D02*
X035588Y020887D01*
X035588Y020768D02*
X003415Y020768D01*
X003399Y020828D02*
X003468Y020572D01*
X003468Y020306D01*
X003399Y020050D01*
X003266Y019820D01*
X035588Y019820D01*
X035588Y019702D02*
X003147Y019702D01*
X003079Y019633D02*
X003266Y019820D01*
X003335Y019939D02*
X035588Y019939D01*
X035588Y020057D02*
X003401Y020057D01*
X003433Y020176D02*
X035588Y020176D01*
X035588Y020294D02*
X003464Y020294D01*
X003468Y020413D02*
X035588Y020413D01*
X035588Y020531D02*
X003468Y020531D01*
X003447Y020650D02*
X035588Y020650D01*
X036875Y020710D02*
X036875Y020830D01*
X037087Y020830D01*
X037087Y020710D01*
X036875Y020710D01*
X036875Y020768D02*
X037087Y020768D01*
X037087Y020830D02*
X037087Y021186D01*
X037068Y021186D01*
X037068Y021557D01*
X037188Y021557D01*
X037188Y021677D01*
X037543Y021677D01*
X037543Y021933D01*
X037533Y021974D01*
X037511Y022010D01*
X037511Y022011D01*
X037533Y022047D01*
X037543Y022088D01*
X037543Y022344D01*
X037188Y022344D01*
X037188Y022464D01*
X037543Y022464D01*
X037543Y022495D01*
X037676Y022495D01*
X037676Y022405D01*
X038071Y022405D01*
X038071Y022285D01*
X037676Y022285D01*
X037676Y022083D01*
X037616Y022023D01*
X037616Y021329D01*
X037745Y021200D01*
X037837Y021200D01*
X037837Y020950D01*
X037836Y020950D01*
X037686Y020950D01*
X037686Y020543D01*
X037819Y020543D01*
X037819Y020525D01*
X037686Y020525D01*
X037686Y020543D01*
X037668Y020543D01*
X037668Y020950D01*
X037603Y020950D01*
X037603Y021047D01*
X037592Y021088D01*
X037571Y021124D01*
X037837Y021124D01*
X037837Y021005D02*
X037603Y021005D01*
X037571Y021124D02*
X037541Y021154D01*
X037504Y021175D01*
X037467Y021185D01*
X037482Y021193D01*
X037511Y021223D01*
X037533Y021260D01*
X037543Y021300D01*
X037543Y021557D01*
X037188Y021557D01*
X037188Y021161D01*
X037207Y021161D01*
X037207Y020830D01*
X037087Y020830D01*
X037087Y020887D02*
X037207Y020887D01*
X037207Y020830D02*
X037384Y020830D01*
X037379Y020811D01*
X037379Y020710D01*
X037207Y020710D01*
X037207Y020830D01*
X037207Y020768D02*
X037379Y020768D01*
X037668Y020768D02*
X037686Y020768D01*
X037686Y020650D02*
X037668Y020650D01*
X037668Y020543D02*
X037603Y020543D01*
X037603Y020525D01*
X037668Y020525D01*
X037668Y020543D01*
X037668Y020531D02*
X037603Y020531D01*
X037686Y020531D02*
X037819Y020531D01*
X037686Y020887D02*
X037668Y020887D01*
X037703Y021242D02*
X037522Y021242D01*
X037543Y021361D02*
X037616Y021361D01*
X037616Y021479D02*
X037543Y021479D01*
X037616Y021598D02*
X037188Y021598D01*
X037188Y021677D02*
X037068Y021677D01*
X037068Y022344D01*
X037188Y022344D01*
X037188Y021949D01*
X037188Y021677D01*
X037188Y021716D02*
X037068Y021716D01*
X037068Y021835D02*
X037188Y021835D01*
X037188Y021953D02*
X037068Y021953D01*
X037068Y022072D02*
X037188Y022072D01*
X037188Y022190D02*
X037068Y022190D01*
X037068Y022309D02*
X037188Y022309D01*
X037188Y022427D02*
X037676Y022427D01*
X037543Y022309D02*
X038071Y022309D01*
X038191Y022309D02*
X039154Y022309D01*
X039154Y022305D02*
X038523Y022305D01*
X038523Y022285D01*
X038191Y022285D01*
X038191Y022405D01*
X038587Y022405D01*
X038587Y022425D01*
X039154Y022425D01*
X039154Y022305D01*
X039274Y022305D01*
X039274Y022425D01*
X039906Y022425D01*
X039906Y022495D01*
X041141Y022495D01*
X041141Y022474D01*
X041713Y022474D01*
X041713Y022354D01*
X041141Y022354D01*
X041141Y022039D01*
X041152Y021998D01*
X041173Y021961D01*
X041203Y021932D01*
X041239Y021911D01*
X041280Y021900D01*
X041713Y021900D01*
X041713Y022354D01*
X041833Y022354D01*
X041833Y021900D01*
X042267Y021900D01*
X042307Y021911D01*
X042344Y021932D01*
X042356Y021944D01*
X042366Y021905D01*
X042387Y021869D01*
X042417Y021839D01*
X042454Y021818D01*
X042494Y021807D01*
X042947Y021807D01*
X042947Y022291D01*
X042406Y022291D01*
X042406Y022354D01*
X041833Y022354D01*
X041833Y022474D01*
X042355Y022474D01*
X042355Y022411D01*
X042947Y022411D01*
X042947Y022291D01*
X043067Y022291D01*
X043067Y021807D01*
X043521Y021807D01*
X043561Y021818D01*
X043598Y021839D01*
X043628Y021869D01*
X043649Y021905D01*
X043660Y021946D01*
X043660Y022291D01*
X043067Y022291D01*
X043067Y022411D01*
X043660Y022411D01*
X043660Y022495D01*
X044234Y022495D01*
X044234Y020400D01*
X044231Y020408D01*
X043720Y020919D01*
X043720Y021625D01*
X043591Y021754D01*
X042424Y021754D01*
X042295Y021625D01*
X042295Y021394D01*
X041210Y021394D01*
X041081Y021265D01*
X041081Y020656D01*
X040982Y020656D01*
X041072Y020872D01*
X041072Y021180D01*
X040954Y021465D01*
X040736Y021683D01*
X040451Y021801D01*
X040143Y021801D01*
X039924Y021710D01*
X039837Y021797D01*
X038647Y021797D01*
X038647Y021894D01*
X038662Y021890D01*
X039154Y021890D01*
X039154Y022305D01*
X039154Y022190D02*
X039274Y022190D01*
X039274Y022305D02*
X039274Y021890D01*
X039767Y021890D01*
X039807Y021901D01*
X039844Y021922D01*
X039874Y021952D01*
X039895Y021988D01*
X039906Y022029D01*
X039906Y022305D01*
X039274Y022305D01*
X039274Y022309D02*
X041141Y022309D01*
X041141Y022190D02*
X039906Y022190D01*
X039906Y022072D02*
X041141Y022072D01*
X041181Y021953D02*
X039875Y021953D01*
X039918Y021716D02*
X039938Y021716D01*
X040656Y021716D02*
X042386Y021716D01*
X042425Y021835D02*
X038647Y021835D01*
X039154Y021953D02*
X039274Y021953D01*
X039274Y022072D02*
X039154Y022072D01*
X039906Y022427D02*
X041713Y022427D01*
X041713Y022309D02*
X041833Y022309D01*
X041833Y022427D02*
X042355Y022427D01*
X042406Y022309D02*
X042947Y022309D01*
X042947Y022190D02*
X043067Y022190D01*
X043067Y022072D02*
X042947Y022072D01*
X042947Y021953D02*
X043067Y021953D01*
X043067Y021835D02*
X042947Y021835D01*
X042295Y021598D02*
X040821Y021598D01*
X040940Y021479D02*
X042295Y021479D01*
X041833Y021953D02*
X041713Y021953D01*
X041713Y022072D02*
X041833Y022072D01*
X041833Y022190D02*
X041713Y022190D01*
X041177Y021361D02*
X040997Y021361D01*
X041046Y021242D02*
X041081Y021242D01*
X041072Y021124D02*
X041081Y021124D01*
X041072Y021005D02*
X041081Y021005D01*
X041072Y020887D02*
X041081Y020887D01*
X041081Y020768D02*
X041029Y020768D01*
X042076Y020176D02*
X043501Y020176D01*
X043526Y020057D02*
X042076Y020057D01*
X042076Y019939D02*
X043526Y019939D01*
X043526Y019820D02*
X042076Y019820D01*
X042076Y019702D02*
X043526Y019702D01*
X043526Y019583D02*
X042076Y019583D01*
X042076Y019465D02*
X043526Y019465D01*
X043526Y019346D02*
X042076Y019346D01*
X042076Y019228D02*
X043526Y019228D01*
X043526Y019109D02*
X042076Y019109D01*
X042076Y018991D02*
X043526Y018991D01*
X043526Y018872D02*
X042076Y018872D01*
X042015Y018754D02*
X043613Y018754D01*
X044234Y018635D02*
X041990Y018635D01*
X041910Y018517D02*
X044234Y018517D01*
X044234Y018398D02*
X041791Y018398D01*
X041673Y018280D02*
X044234Y018280D01*
X044234Y018161D02*
X041554Y018161D01*
X041405Y018043D02*
X044234Y018043D01*
X044234Y017924D02*
X039437Y017924D01*
X039636Y017687D02*
X039756Y017687D01*
X039756Y017741D02*
X039756Y017149D01*
X040240Y017149D01*
X040240Y017602D01*
X040229Y017643D01*
X040208Y017680D01*
X040179Y017709D01*
X040142Y017730D01*
X040101Y017741D01*
X039756Y017741D01*
X039756Y017569D02*
X039636Y017569D01*
X039636Y017450D02*
X039756Y017450D01*
X039756Y017332D02*
X039636Y017332D01*
X039636Y017213D02*
X039756Y017213D01*
X039756Y017095D02*
X040293Y017095D01*
X040293Y017213D02*
X040240Y017213D01*
X040240Y017332D02*
X040293Y017332D01*
X040293Y017450D02*
X040240Y017450D01*
X040240Y017569D02*
X040293Y017569D01*
X040308Y017687D02*
X040201Y017687D01*
X039192Y017687D02*
X038141Y017687D01*
X038260Y017806D02*
X044234Y017806D01*
X043162Y017687D02*
X043055Y017687D01*
X043095Y017569D02*
X043148Y017569D01*
X043148Y017450D02*
X043095Y017450D01*
X043095Y017332D02*
X043148Y017332D01*
X043148Y017213D02*
X043095Y017213D01*
X042007Y016976D02*
X041501Y016976D01*
X041501Y016858D02*
X042007Y016858D01*
X042007Y016739D02*
X041501Y016739D01*
X041501Y016621D02*
X042007Y016621D01*
X042037Y016502D02*
X041497Y016502D01*
X040293Y016621D02*
X040240Y016621D01*
X040240Y016739D02*
X040293Y016739D01*
X040293Y016858D02*
X040240Y016858D01*
X040240Y016976D02*
X040293Y016976D01*
X038177Y018119D02*
X037935Y017877D01*
X037364Y017877D01*
X037541Y018369D02*
X037344Y018566D01*
X037344Y019904D01*
X037147Y020101D01*
X036281Y019625D02*
X036188Y019625D01*
X036238Y019575D01*
X036238Y019582D01*
X036281Y019625D01*
X036240Y019583D02*
X036230Y019583D01*
X036183Y019235D02*
X036754Y019235D01*
X035794Y019228D02*
X001320Y019228D01*
X001320Y019346D02*
X035675Y019346D01*
X035600Y019465D02*
X002716Y019465D01*
X002593Y019432D02*
X002849Y019500D01*
X003079Y019633D01*
X002993Y019583D02*
X035588Y019583D01*
X037087Y021005D02*
X037207Y021005D01*
X037207Y021124D02*
X037087Y021124D01*
X037068Y021242D02*
X037188Y021242D01*
X037188Y021361D02*
X037068Y021361D01*
X037068Y021479D02*
X037188Y021479D01*
X037543Y021716D02*
X037616Y021716D01*
X037616Y021835D02*
X037543Y021835D01*
X037538Y021953D02*
X037616Y021953D01*
X037511Y022010D02*
X037511Y022010D01*
X037539Y022072D02*
X037665Y022072D01*
X037676Y022190D02*
X037543Y022190D01*
X039214Y021262D02*
X039214Y021223D01*
X039522Y020159D02*
X039545Y020135D01*
X039545Y019754D01*
X039600Y019700D01*
X039522Y019511D01*
X039522Y020159D01*
X039522Y020057D02*
X039545Y020057D01*
X039545Y019939D02*
X039522Y019939D01*
X039522Y019820D02*
X039545Y019820D01*
X039522Y019702D02*
X039598Y019702D01*
X039552Y019583D02*
X039522Y019583D01*
X039522Y018998D02*
X039606Y018793D01*
X039707Y018693D01*
X039535Y018693D01*
X039535Y018716D01*
X039518Y018732D01*
X039522Y018735D01*
X039522Y018998D01*
X039522Y018991D02*
X039525Y018991D01*
X039522Y018872D02*
X039574Y018872D01*
X039522Y018754D02*
X039646Y018754D01*
X040887Y018693D02*
X040987Y018793D01*
X041111Y019093D01*
X041111Y019416D01*
X041025Y019625D01*
X041116Y019625D01*
X041242Y019751D01*
X041242Y018841D01*
X041257Y018826D01*
X041125Y018693D01*
X040887Y018693D01*
X040948Y018754D02*
X041185Y018754D01*
X041242Y018872D02*
X041020Y018872D01*
X041069Y018991D02*
X041242Y018991D01*
X041242Y019109D02*
X041111Y019109D01*
X041111Y019228D02*
X041242Y019228D01*
X041242Y019346D02*
X041111Y019346D01*
X041091Y019465D02*
X041242Y019465D01*
X041242Y019583D02*
X041042Y019583D01*
X041193Y019702D02*
X041242Y019702D01*
X042386Y020294D02*
X043383Y020294D01*
X043264Y020413D02*
X042466Y020413D01*
X042466Y020531D02*
X043146Y020531D01*
X043752Y020887D02*
X044234Y020887D01*
X044234Y021005D02*
X043720Y021005D01*
X043720Y021124D02*
X044234Y021124D01*
X044234Y021242D02*
X043720Y021242D01*
X043720Y021361D02*
X044234Y021361D01*
X044234Y021479D02*
X043720Y021479D01*
X043720Y021598D02*
X044234Y021598D01*
X044234Y021716D02*
X043629Y021716D01*
X043590Y021835D02*
X044234Y021835D01*
X044234Y021953D02*
X043660Y021953D01*
X043660Y022072D02*
X044234Y022072D01*
X044234Y022190D02*
X043660Y022190D01*
X043660Y022427D02*
X044234Y022427D01*
X044234Y022309D02*
X043067Y022309D01*
X043870Y020768D02*
X044234Y020768D01*
X044234Y020650D02*
X043989Y020650D01*
X044107Y020531D02*
X044234Y020531D01*
X044226Y020413D02*
X044234Y020413D01*
X038177Y018369D02*
X038177Y018119D01*
X037677Y018369D02*
X037541Y018369D01*
X037427Y014901D02*
X037432Y014896D01*
X037447Y014896D01*
X037427Y014888D01*
X037427Y014901D01*
X037639Y014432D02*
X037639Y014038D01*
X038624Y013054D01*
X039509Y013054D01*
X039706Y012857D01*
X039706Y012660D01*
X038296Y012592D02*
X036049Y012592D01*
X036049Y012710D02*
X038178Y012710D01*
X038059Y012829D02*
X036049Y012829D01*
X036049Y012947D02*
X037941Y012947D01*
X037822Y013066D02*
X036049Y013066D01*
X036049Y013184D02*
X037704Y013184D01*
X037585Y013303D02*
X036049Y013303D01*
X036049Y013421D02*
X037467Y013421D01*
X037348Y013540D02*
X036159Y013540D01*
X036278Y013658D02*
X037230Y013658D01*
X037111Y013777D02*
X036396Y013777D01*
X036515Y013895D02*
X036993Y013895D01*
X036647Y014416D02*
X036639Y014416D01*
X035769Y013546D01*
X035769Y011577D01*
X036128Y011525D02*
X037880Y011525D01*
X037999Y011644D02*
X036128Y011644D01*
X036081Y011762D02*
X038117Y011762D01*
X038236Y011881D02*
X036049Y011881D01*
X036049Y011999D02*
X038354Y011999D01*
X038641Y011494D02*
X038529Y011382D01*
X038864Y011382D01*
X038864Y011443D01*
X038916Y011494D01*
X038641Y011494D01*
X038554Y011407D02*
X038864Y011407D01*
X041647Y011525D02*
X041922Y011525D01*
X041985Y011407D02*
X041729Y011407D01*
X041729Y011288D02*
X041985Y011288D01*
X041985Y011170D02*
X041729Y011170D01*
X041729Y011051D02*
X041985Y011051D01*
X041985Y010933D02*
X041729Y010933D01*
X042713Y011920D02*
X041897Y012735D01*
X042376Y012735D01*
X042595Y012735D01*
X042713Y012618D01*
X042713Y011920D01*
X042713Y011999D02*
X042633Y011999D01*
X042713Y012118D02*
X042515Y012118D01*
X042396Y012236D02*
X042713Y012236D01*
X042713Y012355D02*
X042278Y012355D01*
X042159Y012473D02*
X042713Y012473D01*
X042713Y012592D02*
X042041Y012592D01*
X041922Y012710D02*
X042620Y012710D01*
X041664Y014014D02*
X041660Y014014D01*
X040077Y014162D02*
X040062Y014177D01*
X039959Y014220D01*
X039778Y014220D01*
X040077Y014518D01*
X040077Y014162D01*
X040077Y014251D02*
X039809Y014251D01*
X039928Y014369D02*
X040077Y014369D01*
X040077Y014488D02*
X040046Y014488D01*
X037655Y014416D02*
X037639Y014432D01*
X037647Y014416D02*
X037655Y014416D01*
X033207Y014251D02*
X031689Y014251D01*
X031595Y014369D02*
X032921Y014369D01*
X032765Y014488D02*
X031477Y014488D01*
X031301Y014606D02*
X032647Y014606D01*
X025262Y013421D02*
X021530Y013421D01*
X021481Y013303D02*
X025056Y013303D01*
X024924Y013184D02*
X021427Y013184D01*
X021308Y013066D02*
X024808Y013066D01*
X024739Y012947D02*
X021190Y012947D01*
X020943Y012829D02*
X024671Y012829D01*
X024633Y012710D02*
X020892Y012710D01*
X020892Y012592D02*
X024601Y012592D01*
X024581Y012473D02*
X020892Y012473D01*
X020919Y012355D02*
X024581Y012355D01*
X024581Y012236D02*
X021038Y012236D01*
X021156Y012118D02*
X024607Y012118D01*
X024638Y011999D02*
X021275Y011999D01*
X021393Y011881D02*
X024683Y011881D01*
X024751Y011762D02*
X021512Y011762D01*
X021630Y011644D02*
X024826Y011644D01*
X024945Y011525D02*
X021749Y011525D01*
X021867Y011407D02*
X025091Y011407D01*
X022071Y010807D02*
X020612Y012266D01*
X020612Y013743D01*
X019722Y014132D02*
X001320Y014132D01*
X001320Y014014D02*
X019673Y014014D01*
X019641Y013895D02*
X001320Y013895D01*
X001320Y013777D02*
X019641Y013777D01*
X019641Y013658D02*
X001320Y013658D01*
X001320Y013540D02*
X019645Y013540D01*
X019694Y013421D02*
X001320Y013421D01*
X001320Y013303D02*
X019743Y013303D01*
X019797Y013184D02*
X001320Y013184D01*
X001320Y013066D02*
X019915Y013066D01*
X020034Y012947D02*
X001320Y012947D01*
X001320Y012829D02*
X020281Y012829D01*
X020332Y012710D02*
X001320Y012710D01*
X001320Y012592D02*
X020332Y012592D01*
X020332Y012473D02*
X001320Y012473D01*
X001320Y012355D02*
X020332Y012355D01*
X020332Y012236D02*
X001320Y012236D01*
X001320Y012118D02*
X020370Y012118D01*
X020483Y011999D02*
X001320Y011999D01*
X001320Y011881D02*
X020602Y011881D01*
X020720Y011762D02*
X001320Y011762D01*
X001320Y011644D02*
X020839Y011644D01*
X020957Y011525D02*
X001320Y011525D01*
X001320Y011407D02*
X021076Y011407D01*
X021194Y011288D02*
X001320Y011288D01*
X001320Y011170D02*
X021313Y011170D01*
X021431Y011051D02*
X001320Y011051D01*
X001320Y010933D02*
X021550Y010933D01*
X021668Y010814D02*
X001320Y010814D01*
X001320Y019465D02*
X002204Y019465D01*
X002328Y019432D02*
X002071Y019500D01*
X001842Y019633D01*
X001654Y019820D01*
X001320Y019820D01*
X001320Y019702D02*
X001773Y019702D01*
X001654Y019820D02*
X001521Y020050D01*
X001453Y020306D01*
X001453Y020572D01*
X001521Y020828D01*
X001654Y021058D01*
X001842Y021245D01*
X002071Y021378D01*
X002328Y021446D01*
X002593Y021446D01*
X002849Y021378D01*
X003079Y021245D01*
X003266Y021058D01*
X003399Y020828D01*
X003365Y020887D02*
X022532Y020887D01*
X022220Y021005D02*
X003297Y021005D01*
X003200Y021124D02*
X022039Y021124D01*
X021921Y021242D02*
X003082Y021242D01*
X002879Y021361D02*
X021826Y021361D01*
X021757Y021479D02*
X001320Y021479D01*
X001320Y021361D02*
X002042Y021361D01*
X001839Y021242D02*
X001320Y021242D01*
X001320Y021124D02*
X001720Y021124D01*
X001624Y021005D02*
X001320Y021005D01*
X001320Y020887D02*
X001555Y020887D01*
X001505Y020768D02*
X001320Y020768D01*
X001320Y020650D02*
X001474Y020650D01*
X001453Y020531D02*
X001320Y020531D01*
X001320Y020413D02*
X001453Y020413D01*
X001456Y020294D02*
X001320Y020294D01*
X001320Y020176D02*
X001488Y020176D01*
X001520Y020057D02*
X001320Y020057D01*
X001320Y019939D02*
X001586Y019939D01*
X001320Y019583D02*
X001928Y019583D01*
X002328Y019432D02*
X002593Y019432D01*
X001320Y021598D02*
X021698Y021598D01*
X021666Y021716D02*
X001320Y021716D01*
X001320Y021835D02*
X021635Y021835D01*
X021628Y021953D02*
X001320Y021953D01*
X001320Y022072D02*
X021628Y022072D01*
X021636Y022190D02*
X001320Y022190D01*
X001320Y022309D02*
X021668Y022309D01*
X021699Y022427D02*
X001320Y022427D01*
X021065Y014606D02*
X022410Y014606D01*
X022529Y014488D02*
X021240Y014488D01*
X021359Y014369D02*
X022685Y014369D01*
X022971Y014251D02*
X021453Y014251D01*
X036557Y007097D02*
X036608Y007097D01*
X037443Y006262D01*
X040986Y006262D01*
X043272Y006548D02*
X043500Y006548D01*
X043500Y006430D02*
X043336Y006430D01*
X043351Y006311D02*
X043500Y006311D01*
X043500Y006193D02*
X043351Y006193D01*
X039148Y008758D02*
X039077Y008686D01*
X039077Y008738D01*
X039077Y008758D01*
X039148Y008758D01*
X037342Y006785D02*
X037316Y006785D01*
X030265Y004297D02*
X028976Y004297D01*
X028858Y004178D02*
X030146Y004178D01*
D33*
X013089Y002721D03*
X002460Y020439D03*
M02*
