G75*
G70*
%OFA0B0*%
%FSLAX24Y24*%
%IPPOS*%
%LPD*%
%AMOC8*
5,1,8,0,0,1.08239X$1,22.5*
%
%ADD10C,0.0079*%
%ADD11C,0.0000*%
%ADD12C,0.0040*%
%ADD13R,0.0295X0.0571*%
%ADD14C,0.0030*%
%ADD15C,0.0050*%
%ADD16C,0.0176*%
%ADD17R,0.0571X0.0295*%
%ADD18C,0.0060*%
%ADD19R,0.0256X0.0551*%
%ADD20R,0.0551X0.0256*%
%ADD21C,0.0004*%
%ADD22C,0.0080*%
%ADD23R,0.0866X0.0256*%
%ADD24R,0.0965X0.0266*%
%ADD25R,0.0472X0.0049*%
%ADD26R,0.0965X0.0118*%
%ADD27R,0.1024X0.0295*%
%ADD28R,0.0390X0.0180*%
%ADD29R,0.0180X0.0390*%
%ADD30R,0.0180X0.0230*%
%ADD31R,0.0049X0.0472*%
%ADD32R,0.0118X0.0965*%
%ADD33R,0.0234X0.0512*%
%ADD34R,0.0230X0.0512*%
D10*
X000139Y000160D02*
X000139Y022995D01*
X045415Y022995D01*
X045415Y000160D01*
X000139Y000160D01*
D11*
X022088Y001144D02*
X022090Y001196D01*
X022096Y001248D01*
X022106Y001299D01*
X022119Y001349D01*
X022137Y001399D01*
X022158Y001446D01*
X022182Y001492D01*
X022211Y001536D01*
X022242Y001578D01*
X022276Y001617D01*
X022313Y001654D01*
X022353Y001687D01*
X022396Y001718D01*
X022440Y001745D01*
X022486Y001769D01*
X022535Y001789D01*
X022584Y001805D01*
X022635Y001818D01*
X022686Y001827D01*
X022738Y001832D01*
X022790Y001833D01*
X022842Y001830D01*
X022894Y001823D01*
X022945Y001812D01*
X022995Y001798D01*
X023044Y001779D01*
X023091Y001757D01*
X023136Y001732D01*
X023180Y001703D01*
X023221Y001671D01*
X023260Y001636D01*
X023295Y001598D01*
X023328Y001557D01*
X023358Y001515D01*
X023384Y001470D01*
X023407Y001423D01*
X023426Y001374D01*
X023442Y001324D01*
X023454Y001274D01*
X023462Y001222D01*
X023466Y001170D01*
X023466Y001118D01*
X023462Y001066D01*
X023454Y001014D01*
X023442Y000964D01*
X023426Y000914D01*
X023407Y000865D01*
X023384Y000818D01*
X023358Y000773D01*
X023328Y000731D01*
X023295Y000690D01*
X023260Y000652D01*
X023221Y000617D01*
X023180Y000585D01*
X023136Y000556D01*
X023091Y000531D01*
X023044Y000509D01*
X022995Y000490D01*
X022945Y000476D01*
X022894Y000465D01*
X022842Y000458D01*
X022790Y000455D01*
X022738Y000456D01*
X022686Y000461D01*
X022635Y000470D01*
X022584Y000483D01*
X022535Y000499D01*
X022486Y000519D01*
X022440Y000543D01*
X022396Y000570D01*
X022353Y000601D01*
X022313Y000634D01*
X022276Y000671D01*
X022242Y000710D01*
X022211Y000752D01*
X022182Y000796D01*
X022158Y000842D01*
X022137Y000889D01*
X022119Y000939D01*
X022106Y000989D01*
X022096Y001040D01*
X022090Y001092D01*
X022088Y001144D01*
X025041Y012365D02*
X025043Y012417D01*
X025049Y012469D01*
X025059Y012520D01*
X025072Y012570D01*
X025090Y012620D01*
X025111Y012667D01*
X025135Y012713D01*
X025164Y012757D01*
X025195Y012799D01*
X025229Y012838D01*
X025266Y012875D01*
X025306Y012908D01*
X025349Y012939D01*
X025393Y012966D01*
X025439Y012990D01*
X025488Y013010D01*
X025537Y013026D01*
X025588Y013039D01*
X025639Y013048D01*
X025691Y013053D01*
X025743Y013054D01*
X025795Y013051D01*
X025847Y013044D01*
X025898Y013033D01*
X025948Y013019D01*
X025997Y013000D01*
X026044Y012978D01*
X026089Y012953D01*
X026133Y012924D01*
X026174Y012892D01*
X026213Y012857D01*
X026248Y012819D01*
X026281Y012778D01*
X026311Y012736D01*
X026337Y012691D01*
X026360Y012644D01*
X026379Y012595D01*
X026395Y012545D01*
X026407Y012495D01*
X026415Y012443D01*
X026419Y012391D01*
X026419Y012339D01*
X026415Y012287D01*
X026407Y012235D01*
X026395Y012185D01*
X026379Y012135D01*
X026360Y012086D01*
X026337Y012039D01*
X026311Y011994D01*
X026281Y011952D01*
X026248Y011911D01*
X026213Y011873D01*
X026174Y011838D01*
X026133Y011806D01*
X026089Y011777D01*
X026044Y011752D01*
X025997Y011730D01*
X025948Y011711D01*
X025898Y011697D01*
X025847Y011686D01*
X025795Y011679D01*
X025743Y011676D01*
X025691Y011677D01*
X025639Y011682D01*
X025588Y011691D01*
X025537Y011704D01*
X025488Y011720D01*
X025439Y011740D01*
X025393Y011764D01*
X025349Y011791D01*
X025306Y011822D01*
X025266Y011855D01*
X025229Y011892D01*
X025195Y011931D01*
X025164Y011973D01*
X025135Y012017D01*
X025111Y012063D01*
X025090Y012110D01*
X025072Y012160D01*
X025059Y012210D01*
X025049Y012261D01*
X025043Y012313D01*
X025041Y012365D01*
X039943Y019254D02*
X039945Y019291D01*
X039951Y019328D01*
X039960Y019363D01*
X039974Y019398D01*
X039990Y019431D01*
X040011Y019462D01*
X040034Y019491D01*
X040060Y019517D01*
X040089Y019540D01*
X040120Y019561D01*
X040153Y019577D01*
X040188Y019591D01*
X040223Y019600D01*
X040260Y019606D01*
X040297Y019608D01*
X040334Y019606D01*
X040371Y019600D01*
X040406Y019591D01*
X040441Y019577D01*
X040474Y019561D01*
X040505Y019540D01*
X040534Y019517D01*
X040560Y019491D01*
X040583Y019462D01*
X040604Y019431D01*
X040620Y019398D01*
X040634Y019363D01*
X040643Y019328D01*
X040649Y019291D01*
X040651Y019254D01*
X040649Y019217D01*
X040643Y019180D01*
X040634Y019145D01*
X040620Y019110D01*
X040604Y019077D01*
X040583Y019046D01*
X040560Y019017D01*
X040534Y018991D01*
X040505Y018968D01*
X040474Y018947D01*
X040441Y018931D01*
X040406Y018917D01*
X040371Y018908D01*
X040334Y018902D01*
X040297Y018900D01*
X040260Y018902D01*
X040223Y018908D01*
X040188Y018917D01*
X040153Y018931D01*
X040120Y018947D01*
X040089Y018968D01*
X040060Y018991D01*
X040034Y019017D01*
X040011Y019046D01*
X039990Y019077D01*
X039974Y019110D01*
X039960Y019145D01*
X039951Y019180D01*
X039945Y019217D01*
X039943Y019254D01*
X039982Y021026D02*
X039984Y021061D01*
X039990Y021096D01*
X040000Y021130D01*
X040013Y021163D01*
X040030Y021194D01*
X040051Y021222D01*
X040074Y021249D01*
X040101Y021272D01*
X040129Y021293D01*
X040160Y021310D01*
X040193Y021323D01*
X040227Y021333D01*
X040262Y021339D01*
X040297Y021341D01*
X040332Y021339D01*
X040367Y021333D01*
X040401Y021323D01*
X040434Y021310D01*
X040465Y021293D01*
X040493Y021272D01*
X040520Y021249D01*
X040543Y021222D01*
X040564Y021194D01*
X040581Y021163D01*
X040594Y021130D01*
X040604Y021096D01*
X040610Y021061D01*
X040612Y021026D01*
X040610Y020991D01*
X040604Y020956D01*
X040594Y020922D01*
X040581Y020889D01*
X040564Y020858D01*
X040543Y020830D01*
X040520Y020803D01*
X040493Y020780D01*
X040465Y020759D01*
X040434Y020742D01*
X040401Y020729D01*
X040367Y020719D01*
X040332Y020713D01*
X040297Y020711D01*
X040262Y020713D01*
X040227Y020719D01*
X040193Y020729D01*
X040160Y020742D01*
X040129Y020759D01*
X040101Y020780D01*
X040074Y020803D01*
X040051Y020830D01*
X040030Y020858D01*
X040013Y020889D01*
X040000Y020922D01*
X039990Y020956D01*
X039984Y020991D01*
X039982Y021026D01*
X022088Y022010D02*
X022090Y022062D01*
X022096Y022114D01*
X022106Y022165D01*
X022119Y022215D01*
X022137Y022265D01*
X022158Y022312D01*
X022182Y022358D01*
X022211Y022402D01*
X022242Y022444D01*
X022276Y022483D01*
X022313Y022520D01*
X022353Y022553D01*
X022396Y022584D01*
X022440Y022611D01*
X022486Y022635D01*
X022535Y022655D01*
X022584Y022671D01*
X022635Y022684D01*
X022686Y022693D01*
X022738Y022698D01*
X022790Y022699D01*
X022842Y022696D01*
X022894Y022689D01*
X022945Y022678D01*
X022995Y022664D01*
X023044Y022645D01*
X023091Y022623D01*
X023136Y022598D01*
X023180Y022569D01*
X023221Y022537D01*
X023260Y022502D01*
X023295Y022464D01*
X023328Y022423D01*
X023358Y022381D01*
X023384Y022336D01*
X023407Y022289D01*
X023426Y022240D01*
X023442Y022190D01*
X023454Y022140D01*
X023462Y022088D01*
X023466Y022036D01*
X023466Y021984D01*
X023462Y021932D01*
X023454Y021880D01*
X023442Y021830D01*
X023426Y021780D01*
X023407Y021731D01*
X023384Y021684D01*
X023358Y021639D01*
X023328Y021597D01*
X023295Y021556D01*
X023260Y021518D01*
X023221Y021483D01*
X023180Y021451D01*
X023136Y021422D01*
X023091Y021397D01*
X023044Y021375D01*
X022995Y021356D01*
X022945Y021342D01*
X022894Y021331D01*
X022842Y021324D01*
X022790Y021321D01*
X022738Y021322D01*
X022686Y021327D01*
X022635Y021336D01*
X022584Y021349D01*
X022535Y021365D01*
X022486Y021385D01*
X022440Y021409D01*
X022396Y021436D01*
X022353Y021467D01*
X022313Y021500D01*
X022276Y021537D01*
X022242Y021576D01*
X022211Y021618D01*
X022182Y021662D01*
X022158Y021708D01*
X022137Y021755D01*
X022119Y021805D01*
X022106Y021855D01*
X022096Y021906D01*
X022090Y021958D01*
X022088Y022010D01*
D12*
X036604Y021877D02*
X036904Y021877D01*
X036894Y021357D02*
X036604Y021357D01*
X038724Y021434D02*
X038724Y022194D01*
X039704Y022194D02*
X039704Y021434D01*
X040255Y020400D02*
X040545Y020400D01*
X040545Y019880D02*
X040245Y019880D01*
X042535Y021121D02*
X043480Y021121D01*
X043480Y022380D01*
X042535Y022380D01*
X042535Y021121D01*
X037013Y019001D02*
X037013Y018711D01*
X036494Y018711D02*
X036494Y019011D01*
X039667Y017562D02*
X039667Y016617D01*
X040927Y016617D01*
X040927Y017562D01*
X039667Y017562D01*
X042521Y017562D02*
X042521Y016617D01*
X043781Y016617D01*
X043781Y017562D01*
X042521Y017562D01*
X041144Y015585D02*
X040914Y015585D01*
X040838Y015509D01*
X040838Y015355D01*
X040914Y015278D01*
X041144Y015278D01*
X040991Y015278D02*
X040838Y015125D01*
X040684Y015125D02*
X040377Y015432D01*
X040377Y015509D01*
X040454Y015585D01*
X040607Y015585D01*
X040684Y015509D01*
X041144Y015585D02*
X041144Y015125D01*
X040684Y015125D02*
X040377Y015125D01*
X042498Y008971D02*
X042498Y008671D01*
X043017Y008671D02*
X043017Y008962D01*
X038332Y007851D02*
X037931Y007851D01*
X037931Y007430D02*
X038332Y007430D01*
X038281Y007113D02*
X037991Y007113D01*
X037981Y006593D02*
X038281Y006593D01*
X038302Y006333D02*
X038456Y006333D01*
X038532Y006257D01*
X038532Y005950D01*
X038456Y005873D01*
X038302Y005873D01*
X038225Y005950D01*
X038072Y005950D02*
X037995Y005873D01*
X037842Y005873D01*
X037765Y005950D01*
X037765Y006257D01*
X037842Y006333D01*
X037995Y006333D01*
X038072Y006257D01*
X038072Y006180D01*
X037995Y006103D01*
X037765Y006103D01*
X038225Y006257D02*
X038302Y006333D01*
X042411Y006325D02*
X042711Y006325D01*
X042701Y005806D02*
X042411Y005806D01*
D13*
X042273Y006066D03*
X042843Y006066D03*
X038419Y006852D03*
X037849Y006852D03*
X040113Y020140D03*
X040683Y020140D03*
X037036Y021617D03*
X036466Y021617D03*
D14*
X035753Y021557D02*
X035705Y021509D01*
X035608Y021509D01*
X035560Y021557D01*
X035458Y021557D02*
X035410Y021509D01*
X035313Y021509D01*
X035265Y021557D01*
X035265Y021654D01*
X035313Y021702D01*
X035362Y021702D01*
X035458Y021654D01*
X035458Y021799D01*
X035265Y021799D01*
X035560Y021750D02*
X035608Y021799D01*
X035705Y021799D01*
X035753Y021750D01*
X035753Y021557D01*
X035753Y021011D02*
X035608Y021011D01*
X035560Y020963D01*
X035560Y020866D01*
X035608Y020818D01*
X035753Y020818D01*
X035656Y020818D02*
X035560Y020721D01*
X035458Y020721D02*
X035458Y020770D01*
X035265Y020963D01*
X035265Y021011D01*
X035458Y021011D01*
X035753Y021011D02*
X035753Y020721D01*
X035753Y020224D02*
X035608Y020224D01*
X035560Y020176D01*
X035560Y020079D01*
X035608Y020030D01*
X035753Y020030D01*
X035753Y019934D02*
X035753Y020224D01*
X035656Y020030D02*
X035560Y019934D01*
X035458Y019982D02*
X035410Y019934D01*
X035313Y019934D01*
X035265Y019982D01*
X035265Y020030D01*
X035313Y020079D01*
X035458Y020079D01*
X035458Y019982D01*
X035458Y020079D02*
X035362Y020176D01*
X035265Y020224D01*
X035610Y018969D02*
X035707Y018969D01*
X035756Y018921D01*
X035610Y018969D02*
X035562Y018921D01*
X035562Y018872D01*
X035756Y018679D01*
X035562Y018679D01*
X035857Y018679D02*
X036050Y018679D01*
X035953Y018679D02*
X035953Y018969D01*
X036050Y018872D01*
X036151Y018921D02*
X036200Y018969D01*
X036296Y018969D01*
X036345Y018921D01*
X036345Y018727D01*
X036296Y018679D01*
X036200Y018679D01*
X036151Y018727D01*
X037675Y017468D02*
X037821Y017323D01*
X037627Y017323D01*
X037675Y017178D02*
X037675Y017468D01*
X037922Y017420D02*
X037970Y017468D01*
X038067Y017468D01*
X038115Y017420D01*
X038115Y017226D01*
X038067Y017178D01*
X037970Y017178D01*
X037922Y017226D01*
X038215Y017178D02*
X038312Y017178D01*
X038263Y017178D02*
X038263Y017468D01*
X038215Y017468D02*
X038312Y017468D01*
X038737Y017005D02*
X038785Y017005D01*
X038979Y017199D01*
X039027Y017199D01*
X039027Y017005D01*
X038979Y016904D02*
X039027Y016856D01*
X039027Y016759D01*
X038979Y016710D01*
X038785Y016710D01*
X038737Y016759D01*
X038737Y016856D01*
X038785Y016904D01*
X038806Y016287D02*
X038806Y015997D01*
X038608Y015997D02*
X038415Y016190D01*
X038415Y016239D01*
X038463Y016287D01*
X038560Y016287D01*
X038608Y016239D01*
X038709Y016287D02*
X038903Y016287D01*
X038608Y015997D02*
X038415Y015997D01*
X040706Y014443D02*
X040706Y014249D01*
X040706Y014346D02*
X040996Y014346D01*
X040899Y014249D01*
X040996Y014148D02*
X040996Y013955D01*
X040996Y014051D02*
X040706Y014051D01*
X042684Y014311D02*
X042733Y014262D01*
X042829Y014262D01*
X042878Y014311D01*
X042878Y014408D02*
X042781Y014456D01*
X042733Y014456D01*
X042684Y014408D01*
X042684Y014311D01*
X042878Y014408D02*
X042878Y014553D01*
X042684Y014553D01*
X043076Y014553D02*
X043076Y014262D01*
X043172Y014262D02*
X042979Y014262D01*
X043172Y014456D02*
X043076Y014553D01*
X043273Y014553D02*
X043467Y014553D01*
X043370Y014553D02*
X043370Y014262D01*
X041943Y015665D02*
X041943Y015859D01*
X041943Y015762D02*
X041652Y015762D01*
X041798Y015960D02*
X041798Y016153D01*
X041943Y016105D02*
X041652Y016105D01*
X041798Y015960D02*
X041943Y016105D01*
X041783Y016710D02*
X041493Y016710D01*
X041590Y016710D02*
X041590Y016856D01*
X041638Y016904D01*
X041735Y016904D01*
X041783Y016856D01*
X041783Y016710D01*
X041590Y016807D02*
X041493Y016904D01*
X041638Y017005D02*
X041638Y017199D01*
X041541Y017300D02*
X041493Y017300D01*
X041541Y017300D02*
X041735Y017493D01*
X041783Y017493D01*
X041783Y017300D01*
X041783Y017150D02*
X041638Y017005D01*
X041493Y017150D02*
X041783Y017150D01*
X043139Y018014D02*
X043139Y018062D01*
X043187Y018110D01*
X043332Y018110D01*
X043332Y018014D01*
X043284Y017965D01*
X043187Y017965D01*
X043139Y018014D01*
X043332Y018110D02*
X043236Y018207D01*
X043139Y018255D01*
X043434Y018207D02*
X043482Y018255D01*
X043579Y018255D01*
X043627Y018207D01*
X043627Y018014D01*
X043579Y017965D01*
X043482Y017965D01*
X043434Y018014D01*
X041363Y019038D02*
X041315Y018990D01*
X041121Y018990D01*
X041073Y019038D01*
X041073Y019135D01*
X041121Y019183D01*
X041073Y019285D02*
X041073Y019478D01*
X041073Y019381D02*
X041363Y019381D01*
X041266Y019285D01*
X041315Y019183D02*
X041363Y019135D01*
X041363Y019038D01*
X041218Y019579D02*
X041218Y019773D01*
X041363Y019724D02*
X041218Y019579D01*
X041073Y019724D02*
X041363Y019724D01*
X041069Y021239D02*
X040779Y021239D01*
X040779Y021384D01*
X040828Y021433D01*
X041021Y021433D01*
X041069Y021384D01*
X041069Y021239D01*
X040973Y021534D02*
X041069Y021631D01*
X040779Y021631D01*
X040779Y021727D02*
X040779Y021534D01*
X040724Y021902D02*
X040627Y021902D01*
X040579Y021951D01*
X040477Y021902D02*
X040284Y022096D01*
X040284Y022144D01*
X040332Y022192D01*
X040429Y022192D01*
X040477Y022144D01*
X040579Y022144D02*
X040627Y022192D01*
X040724Y022192D01*
X040772Y022144D01*
X040772Y021951D01*
X040724Y021902D01*
X040477Y021902D02*
X040284Y021902D01*
X040183Y021902D02*
X039989Y021902D01*
X040086Y021902D02*
X040086Y022192D01*
X040183Y022096D01*
X037920Y021679D02*
X037920Y021582D01*
X037872Y021534D01*
X037823Y021534D01*
X037775Y021582D01*
X037775Y021727D01*
X037872Y021727D02*
X037920Y021679D01*
X037872Y021727D02*
X037678Y021727D01*
X037630Y021679D01*
X037630Y021582D01*
X037678Y021534D01*
X037630Y021433D02*
X037726Y021336D01*
X037726Y021384D02*
X037726Y021239D01*
X037630Y021239D02*
X037920Y021239D01*
X037920Y021384D01*
X037872Y021433D01*
X037775Y021433D01*
X037726Y021384D01*
X035753Y022296D02*
X035753Y022586D01*
X035608Y022586D01*
X035560Y022538D01*
X035560Y022441D01*
X035608Y022393D01*
X035753Y022393D01*
X035656Y022393D02*
X035560Y022296D01*
X035458Y022296D02*
X035265Y022296D01*
X035362Y022296D02*
X035362Y022586D01*
X035458Y022489D01*
X043535Y022321D02*
X043584Y022321D01*
X043777Y022515D01*
X043825Y022515D01*
X043825Y022321D01*
X043825Y022123D02*
X043535Y022123D01*
X043535Y022027D02*
X043535Y022220D01*
X043729Y022027D02*
X043825Y022123D01*
X043777Y021925D02*
X043825Y021877D01*
X043825Y021780D01*
X043777Y021732D01*
X043584Y021732D01*
X043535Y021780D01*
X043535Y021877D01*
X043584Y021925D01*
X043038Y012670D02*
X042893Y012670D01*
X042844Y012622D01*
X042844Y012525D01*
X042893Y012476D01*
X043038Y012476D01*
X043038Y012380D02*
X043038Y012670D01*
X042941Y012476D02*
X042844Y012380D01*
X042743Y012380D02*
X042550Y012573D01*
X042550Y012622D01*
X042598Y012670D01*
X042695Y012670D01*
X042743Y012622D01*
X042743Y012380D02*
X042550Y012380D01*
X042448Y012380D02*
X042255Y012380D01*
X042352Y012380D02*
X042352Y012670D01*
X042448Y012573D01*
X041463Y011883D02*
X041366Y011883D01*
X041415Y011883D02*
X041415Y011592D01*
X041463Y011592D02*
X041366Y011592D01*
X041267Y011641D02*
X041218Y011592D01*
X041121Y011592D01*
X041073Y011641D01*
X040972Y011592D02*
X040778Y011592D01*
X040875Y011592D02*
X040875Y011883D01*
X040972Y011786D01*
X041073Y011834D02*
X041121Y011883D01*
X041218Y011883D01*
X041267Y011834D01*
X041267Y011641D01*
X042674Y010112D02*
X042674Y009918D01*
X042674Y010015D02*
X042964Y010015D01*
X042868Y009918D01*
X042916Y009817D02*
X042964Y009769D01*
X042964Y009672D01*
X042916Y009624D01*
X042722Y009624D01*
X042674Y009672D01*
X042674Y009769D01*
X042722Y009817D01*
X042604Y005690D02*
X042652Y005641D01*
X042652Y005448D01*
X042604Y005399D01*
X042507Y005399D01*
X042458Y005448D01*
X042357Y005399D02*
X042164Y005593D01*
X042164Y005641D01*
X042212Y005690D01*
X042309Y005690D01*
X042357Y005641D01*
X042458Y005641D02*
X042507Y005690D01*
X042604Y005690D01*
X042357Y005399D02*
X042164Y005399D01*
D15*
X042088Y006617D02*
X042088Y007877D01*
X043033Y007877D01*
X043033Y006617D01*
X042088Y006617D01*
X042167Y006820D02*
X042167Y007673D01*
X042169Y007693D01*
X042173Y007712D01*
X042181Y007730D01*
X042191Y007746D01*
X042204Y007761D01*
X042219Y007774D01*
X042235Y007784D01*
X042253Y007792D01*
X042272Y007796D01*
X042292Y007798D01*
X042829Y007798D01*
X042849Y007796D01*
X042868Y007792D01*
X042886Y007784D01*
X042902Y007774D01*
X042917Y007761D01*
X042930Y007746D01*
X042940Y007730D01*
X042948Y007712D01*
X042952Y007693D01*
X042954Y007673D01*
X042954Y006820D01*
X042952Y006800D01*
X042948Y006781D01*
X042940Y006763D01*
X042930Y006747D01*
X042917Y006732D01*
X042902Y006719D01*
X042886Y006709D01*
X042868Y006701D01*
X042849Y006697D01*
X042829Y006695D01*
X042292Y006695D01*
X042272Y006697D01*
X042253Y006701D01*
X042235Y006709D01*
X042219Y006719D01*
X042204Y006732D01*
X042191Y006747D01*
X042181Y006763D01*
X042173Y006781D01*
X042169Y006800D01*
X042167Y006820D01*
X042530Y014664D02*
X041410Y014664D01*
X041410Y015184D01*
X042530Y015184D01*
X042530Y014664D01*
X039676Y014664D02*
X038556Y014664D01*
X038556Y015184D01*
X039676Y015184D01*
X039676Y014664D01*
X039293Y018625D02*
X037561Y018625D01*
X037561Y020278D01*
X039293Y020278D01*
X039293Y018625D01*
D16*
X039096Y018821D03*
D17*
X036753Y018573D03*
X036753Y019143D03*
X042757Y009104D03*
X042757Y008534D03*
D18*
X041677Y008032D02*
X041677Y010652D01*
X041537Y010792D01*
X038917Y010792D01*
X038917Y008032D01*
X041677Y008032D01*
X038801Y008170D02*
X038628Y008170D01*
X038507Y008170D02*
X038333Y008170D01*
X038420Y008170D02*
X038420Y008431D01*
X038507Y008344D01*
X038801Y008431D02*
X038801Y008170D01*
X041236Y010492D02*
X041238Y010515D01*
X041244Y010538D01*
X041253Y010559D01*
X041266Y010579D01*
X041282Y010596D01*
X041300Y010610D01*
X041320Y010621D01*
X041342Y010629D01*
X041365Y010633D01*
X041389Y010633D01*
X041412Y010629D01*
X041434Y010621D01*
X041454Y010610D01*
X041472Y010596D01*
X041488Y010579D01*
X041501Y010559D01*
X041510Y010538D01*
X041516Y010515D01*
X041518Y010492D01*
X041516Y010469D01*
X041510Y010446D01*
X041501Y010425D01*
X041488Y010405D01*
X041472Y010388D01*
X041454Y010374D01*
X041434Y010363D01*
X041412Y010355D01*
X041389Y010351D01*
X041365Y010351D01*
X041342Y010355D01*
X041320Y010363D01*
X041300Y010374D01*
X041282Y010388D01*
X041266Y010405D01*
X041253Y010425D01*
X041244Y010446D01*
X041238Y010469D01*
X041236Y010492D01*
X042202Y013001D02*
X042525Y013001D01*
X042525Y013501D02*
X042202Y013501D01*
X042788Y014664D02*
X043008Y014664D01*
X042788Y014664D02*
X042788Y014984D01*
X042788Y015184D02*
X042788Y014664D01*
X043908Y014664D01*
X043908Y014984D01*
X043908Y015184D02*
X042788Y015184D01*
X043187Y015855D02*
X043509Y015855D01*
X043509Y016355D02*
X043187Y016355D01*
X043908Y015184D02*
X043908Y014664D01*
X043688Y014664D01*
X041054Y014664D02*
X041054Y014984D01*
X041054Y015184D02*
X039934Y015184D01*
X039934Y014664D01*
X040154Y014664D01*
X039934Y014664D02*
X039934Y014984D01*
X039934Y014664D02*
X041054Y014664D01*
X040834Y014664D01*
X041054Y014664D02*
X041054Y015184D01*
X040655Y015855D02*
X040332Y015855D01*
X040332Y016355D02*
X040655Y016355D01*
X037397Y020274D02*
X037397Y020597D01*
X036897Y020597D02*
X036897Y020274D01*
X036610Y020274D02*
X036610Y020597D01*
X036110Y020597D02*
X036110Y020274D01*
X037881Y021849D02*
X037881Y022172D01*
X038381Y022172D02*
X038381Y021849D01*
X036915Y022154D02*
X036592Y022154D01*
X036592Y022654D02*
X036915Y022654D01*
D19*
X037046Y022405D03*
X036466Y022405D03*
X040202Y016104D03*
X040782Y016104D03*
X043056Y016104D03*
X043636Y016104D03*
X042656Y013251D03*
X042076Y013251D03*
D20*
X037147Y020148D03*
X037147Y020728D03*
X036359Y020728D03*
X036359Y020148D03*
X038131Y021722D03*
X038131Y022302D03*
D21*
X041462Y020388D02*
X041462Y018656D01*
X044139Y018656D01*
X044139Y020388D01*
X041462Y020388D01*
D22*
X041261Y020770D02*
X042285Y020770D01*
X042285Y022463D01*
X041261Y022463D01*
X041261Y020770D01*
X041261Y021209D02*
X041261Y022020D01*
X042285Y022020D02*
X042285Y021209D01*
X038861Y007990D02*
X037401Y007990D01*
X037401Y007290D01*
X038861Y007290D01*
X038861Y007990D01*
D23*
X041773Y020632D03*
X041773Y022601D03*
D24*
X041773Y021330D03*
X041773Y021061D03*
D25*
X043007Y021086D03*
X043007Y022415D03*
D26*
X043007Y021317D03*
D27*
X039216Y021291D03*
X039212Y022336D03*
D28*
X038702Y010514D03*
X038702Y010199D03*
X038702Y009884D03*
X038702Y009569D03*
X038702Y009254D03*
X038702Y008940D03*
X038702Y008625D03*
X038702Y008310D03*
X041892Y008310D03*
X041892Y008625D03*
X041892Y008940D03*
X041892Y009254D03*
X041892Y009569D03*
X041892Y009884D03*
X041892Y010199D03*
X041892Y010514D03*
D29*
X041399Y011007D03*
X041084Y011007D03*
X040769Y011007D03*
X040454Y011007D03*
X040139Y011007D03*
X039824Y011007D03*
X039509Y011007D03*
X039194Y011007D03*
X039194Y007817D03*
X039509Y007817D03*
X039824Y007817D03*
X040139Y007817D03*
X040454Y007817D03*
X040769Y007817D03*
X041084Y007817D03*
X041399Y007817D03*
D30*
X041970Y014529D03*
X041600Y015319D03*
X040864Y015319D03*
X040124Y015319D03*
X039486Y015319D03*
X038746Y015319D03*
X039116Y014529D03*
X040494Y014529D03*
X042340Y015319D03*
X042978Y015319D03*
X043718Y015319D03*
X043348Y014529D03*
D31*
X043816Y017089D03*
X042487Y017089D03*
X040961Y017089D03*
X039632Y017089D03*
D32*
X040730Y017089D03*
X043584Y017089D03*
D33*
X037855Y007640D03*
D34*
X038410Y007640D03*
M02*
