%
M48
M72
T01C0.0118
T02C0.0400
T03C0.0630
T04C0.0709
T05C0.1063
T06C0.1102
T07C0.1378
%
T01
X35769Y9018
X37738Y8920
X37935Y9707
X37246Y10101
X39116Y9117
X39903Y8625
X40297Y8920
X41478Y9510
X41281Y10396
X40691Y10396
X43053Y11085
X43446Y10003
X39509Y7345
X41576Y6853
X43446Y6459
X43840Y3310
X41281Y1735
X39313Y1735
X35769Y11577
X39313Y12660
X39706Y12660
X40100Y12660
X40494Y12660
X42069Y13152
X42659Y13152
X41773Y13940
X40494Y14038
X43742Y15317
X40887Y16991
X39805Y16991
X37639Y20534
X39214Y21223
X36261Y21814
X43250Y21321
T02
X37647Y16416
X36647Y16416
X36647Y15416
X37647Y15416
X37647Y14416
X36647Y14416
X36557Y8097
X36557Y7097
X36557Y6097
X36557Y5097
X36557Y4097
X15100Y6066
X15100Y7066
X15100Y8066
T03
X40297Y21026
T04
X40297Y19254
T05
X13089Y2721
X2460Y20439
T06
X18053Y18172
X23171Y18172
X23171Y15219
X20612Y13743
X18053Y15219
X28289Y15219
X30848Y13743
X33407Y15219
X33407Y18172
X28289Y18172
X28289Y7936
X33407Y7936
X33407Y4983
X30848Y3506
X28289Y4983
X23171Y4983
X20612Y3506
X18053Y4983
X18053Y7936
X23171Y7936
T07
X25730Y12365
X22777Y22010
X22777Y1144
M30
